<?xml version="1.0" standalone="no"?>
 <!DOCTYPE svg PUBLIC "-//W3C//DTD SVG 1.1//EN" 
 "http://www.w3.org/Graphics/SVG/1.1/DTD/svg11.dtd"> 
<svg
  xmlns:svg="http://www.w3.org/2000/svg"
  xmlns="http://www.w3.org/2000/svg"
  xmlns:xlink="http://www.w3.org/1999/xlink"
  version="1.1"
  width="45.6692mm" height="36.3728mm" viewBox="0.0000 0.0000 45.6692 36.3728">
<title>SVG Image created as Testdruck-R0805-Edge_Cuts.svg date 2024/07/20 19:52:07 </title>
  <desc>Image generated by PCBNEW </desc>
<g style="fill:#000000; fill-opacity:1.0000;stroke:#000000; stroke-opacity:1.0000;
stroke-linecap:round; stroke-linejoin:round;"
 transform="translate(0 0) scale(1 1)">
</g>
<g style="fill:none; 
stroke:#000000; stroke-width:0.1500; stroke-opacity:1; 
stroke-linecap:round; stroke-linejoin:round;">
<g transform="rotate(-90.000000 40.7582 19.9982)">
<text x="40.7582" y="20.4982"
textLength="9.8690" font-size="1.3333" lengthAdjust="spacingAndGlyphs"
text-anchor="middle" opacity="0">20,0000 mm</text>
</g>
<g class="stroked-text"><desc>20,0000 mm</desc>
<path d="M40.3083 24.6173
L40.2607 24.5697
" />
<path d="M40.2607 24.5697
L40.2131 24.4744
" />
<path d="M40.2131 24.4744
L40.2131 24.2363
" />
<path d="M40.2131 24.2363
L40.2607 24.1411
" />
<path d="M40.2607 24.1411
L40.3083 24.0935
" />
<path d="M40.3083 24.0935
L40.4035 24.0459
" />
<path d="M40.4035 24.0459
L40.4988 24.0459
" />
<path d="M40.4988 24.0459
L40.6416 24.0935
" />
<path d="M40.6416 24.0935
L41.2131 24.6649
" />
<path d="M41.2131 24.6649
L41.2131 24.0459
" />
<path d="M40.2131 23.4268
L40.2131 23.3316
" />
<path d="M40.2131 23.3316
L40.2607 23.2363
" />
<path d="M40.2607 23.2363
L40.3083 23.1887
" />
<path d="M40.3083 23.1887
L40.4035 23.1411
" />
<path d="M40.4035 23.1411
L40.5940 23.0935
" />
<path d="M40.5940 23.0935
L40.8321 23.0935
" />
<path d="M40.8321 23.0935
L41.0226 23.1411
" />
<path d="M41.0226 23.1411
L41.1178 23.1887
" />
<path d="M41.1178 23.1887
L41.1654 23.2363
" />
<path d="M41.1654 23.2363
L41.2131 23.3316
" />
<path d="M41.2131 23.3316
L41.2131 23.4268
" />
<path d="M41.2131 23.4268
L41.1654 23.5221
" />
<path d="M41.1654 23.5221
L41.1178 23.5697
" />
<path d="M41.1178 23.5697
L41.0226 23.6173
" />
<path d="M41.0226 23.6173
L40.8321 23.6649
" />
<path d="M40.8321 23.6649
L40.5940 23.6649
" />
<path d="M40.5940 23.6649
L40.4035 23.6173
" />
<path d="M40.4035 23.6173
L40.3083 23.5697
" />
<path d="M40.3083 23.5697
L40.2607 23.5221
" />
<path d="M40.2607 23.5221
L40.2131 23.4268
" />
<path d="M41.1654 22.6173
L41.2131 22.6173
" />
<path d="M41.2131 22.6173
L41.3083 22.6649
" />
<path d="M41.3083 22.6649
L41.3559 22.7125
" />
<path d="M40.2131 21.9982
L40.2131 21.9030
" />
<path d="M40.2131 21.9030
L40.2607 21.8078
" />
<path d="M40.2607 21.8078
L40.3083 21.7602
" />
<path d="M40.3083 21.7602
L40.4035 21.7125
" />
<path d="M40.4035 21.7125
L40.5940 21.6649
" />
<path d="M40.5940 21.6649
L40.8321 21.6649
" />
<path d="M40.8321 21.6649
L41.0226 21.7125
" />
<path d="M41.0226 21.7125
L41.1178 21.7602
" />
<path d="M41.1178 21.7602
L41.1654 21.8078
" />
<path d="M41.1654 21.8078
L41.2131 21.9030
" />
<path d="M41.2131 21.9030
L41.2131 21.9982
" />
<path d="M41.2131 21.9982
L41.1654 22.0935
" />
<path d="M41.1654 22.0935
L41.1178 22.1411
" />
<path d="M41.1178 22.1411
L41.0226 22.1887
" />
<path d="M41.0226 22.1887
L40.8321 22.2363
" />
<path d="M40.8321 22.2363
L40.5940 22.2363
" />
<path d="M40.5940 22.2363
L40.4035 22.1887
" />
<path d="M40.4035 22.1887
L40.3083 22.1411
" />
<path d="M40.3083 22.1411
L40.2607 22.0935
" />
<path d="M40.2607 22.0935
L40.2131 21.9982
" />
<path d="M40.2131 21.0459
L40.2131 20.9506
" />
<path d="M40.2131 20.9506
L40.2607 20.8554
" />
<path d="M40.2607 20.8554
L40.3083 20.8078
" />
<path d="M40.3083 20.8078
L40.4035 20.7602
" />
<path d="M40.4035 20.7602
L40.5940 20.7125
" />
<path d="M40.5940 20.7125
L40.8321 20.7125
" />
<path d="M40.8321 20.7125
L41.0226 20.7602
" />
<path d="M41.0226 20.7602
L41.1178 20.8078
" />
<path d="M41.1178 20.8078
L41.1654 20.8554
" />
<path d="M41.1654 20.8554
L41.2131 20.9506
" />
<path d="M41.2131 20.9506
L41.2131 21.0459
" />
<path d="M41.2131 21.0459
L41.1654 21.1411
" />
<path d="M41.1654 21.1411
L41.1178 21.1887
" />
<path d="M41.1178 21.1887
L41.0226 21.2363
" />
<path d="M41.0226 21.2363
L40.8321 21.2840
" />
<path d="M40.8321 21.2840
L40.5940 21.2840
" />
<path d="M40.5940 21.2840
L40.4035 21.2363
" />
<path d="M40.4035 21.2363
L40.3083 21.1887
" />
<path d="M40.3083 21.1887
L40.2607 21.1411
" />
<path d="M40.2607 21.1411
L40.2131 21.0459
" />
<path d="M40.2131 20.0935
L40.2131 19.9982
" />
<path d="M40.2131 19.9982
L40.2607 19.9030
" />
<path d="M40.2607 19.9030
L40.3083 19.8554
" />
<path d="M40.3083 19.8554
L40.4035 19.8078
" />
<path d="M40.4035 19.8078
L40.5940 19.7602
" />
<path d="M40.5940 19.7602
L40.8321 19.7602
" />
<path d="M40.8321 19.7602
L41.0226 19.8078
" />
<path d="M41.0226 19.8078
L41.1178 19.8554
" />
<path d="M41.1178 19.8554
L41.1654 19.9030
" />
<path d="M41.1654 19.9030
L41.2131 19.9982
" />
<path d="M41.2131 19.9982
L41.2131 20.0935
" />
<path d="M41.2131 20.0935
L41.1654 20.1887
" />
<path d="M41.1654 20.1887
L41.1178 20.2363
" />
<path d="M41.1178 20.2363
L41.0226 20.2840
" />
<path d="M41.0226 20.2840
L40.8321 20.3316
" />
<path d="M40.8321 20.3316
L40.5940 20.3316
" />
<path d="M40.5940 20.3316
L40.4035 20.2840
" />
<path d="M40.4035 20.2840
L40.3083 20.2363
" />
<path d="M40.3083 20.2363
L40.2607 20.1887
" />
<path d="M40.2607 20.1887
L40.2131 20.0935
" />
<path d="M40.2131 19.1411
L40.2131 19.0459
" />
<path d="M40.2131 19.0459
L40.2607 18.9506
" />
<path d="M40.2607 18.9506
L40.3083 18.9030
" />
<path d="M40.3083 18.9030
L40.4035 18.8554
" />
<path d="M40.4035 18.8554
L40.5940 18.8078
" />
<path d="M40.5940 18.8078
L40.8321 18.8078
" />
<path d="M40.8321 18.8078
L41.0226 18.8554
" />
<path d="M41.0226 18.8554
L41.1178 18.9030
" />
<path d="M41.1178 18.9030
L41.1654 18.9506
" />
<path d="M41.1654 18.9506
L41.2131 19.0459
" />
<path d="M41.2131 19.0459
L41.2131 19.1411
" />
<path d="M41.2131 19.1411
L41.1654 19.2363
" />
<path d="M41.1654 19.2363
L41.1178 19.2840
" />
<path d="M41.1178 19.2840
L41.0226 19.3316
" />
<path d="M41.0226 19.3316
L40.8321 19.3792
" />
<path d="M40.8321 19.3792
L40.5940 19.3792
" />
<path d="M40.5940 19.3792
L40.4035 19.3316
" />
<path d="M40.4035 19.3316
L40.3083 19.2840
" />
<path d="M40.3083 19.2840
L40.2607 19.2363
" />
<path d="M40.2607 19.2363
L40.2131 19.1411
" />
<path d="M41.2131 17.6173
L40.5464 17.6173
" />
<path d="M40.6416 17.6173
L40.5940 17.5697
" />
<path d="M40.5940 17.5697
L40.5464 17.4744
" />
<path d="M40.5464 17.4744
L40.5464 17.3316
" />
<path d="M40.5464 17.3316
L40.5940 17.2363
" />
<path d="M40.5940 17.2363
L40.6893 17.1887
" />
<path d="M40.6893 17.1887
L41.2131 17.1887
" />
<path d="M40.6893 17.1887
L40.5940 17.1411
" />
<path d="M40.5940 17.1411
L40.5464 17.0459
" />
<path d="M40.5464 17.0459
L40.5464 16.9030
" />
<path d="M40.5464 16.9030
L40.5940 16.8078
" />
<path d="M40.5940 16.8078
L40.6893 16.7602
" />
<path d="M40.6893 16.7602
L41.2131 16.7602
" />
<path d="M41.2131 16.2840
L40.5464 16.2840
" />
<path d="M40.6416 16.2840
L40.5940 16.2363
" />
<path d="M40.5940 16.2363
L40.5464 16.1411
" />
<path d="M40.5464 16.1411
L40.5464 15.9982
" />
<path d="M40.5464 15.9982
L40.5940 15.9030
" />
<path d="M40.5940 15.9030
L40.6893 15.8554
" />
<path d="M40.6893 15.8554
L41.2131 15.8554
" />
<path d="M40.6893 15.8554
L40.5940 15.8078
" />
<path d="M40.5940 15.8078
L40.5464 15.7125
" />
<path d="M40.5464 15.7125
L40.5464 15.5697
" />
<path d="M40.5464 15.5697
L40.5940 15.4744
" />
<path d="M40.5940 15.4744
L40.6893 15.4268
" />
<path d="M40.6893 15.4268
L41.2131 15.4268
" />
</g></g>
<g style="fill:none; 
stroke:#000000; stroke-width:0.1000; stroke-opacity:1; 
stroke-linecap:round; stroke-linejoin:round;">
<path d="M31.9082 9.9982
L42.4947 9.9982
" />
<path d="M31.9082 29.9982
L42.4947 29.9982
" />
<path d="M41.9082 9.9982
L41.9082 29.9982
" />
<path d="M41.9082 9.9982
L41.9082 29.9982
" />
<path d="M41.9082 9.9982
L42.4947 11.1248
" />
<path d="M41.9082 9.9982
L41.3218 11.1248
" />
<path d="M41.9082 29.9982
L41.3218 28.8717
" />
<path d="M41.9082 29.9982
L42.4947 28.8717
" />
</g>
<g style="fill:none; 
stroke:#000000; stroke-width:0.1500; stroke-opacity:1; 
stroke-linecap:round; stroke-linejoin:round;">
<text x="16.4082" y="35.0983"
textLength="9.8690" font-size="1.3333" lengthAdjust="spacingAndGlyphs"
text-anchor="middle" opacity="0">30,0000 mm</text>
<g class="stroked-text"><desc>30,0000 mm</desc>
<path d="M11.7416 34.0531
L12.3606 34.0531
" />
<path d="M12.3606 34.0531
L12.0273 34.4340
" />
<path d="M12.0273 34.4340
L12.1702 34.4340
" />
<path d="M12.1702 34.4340
L12.2654 34.4816
" />
<path d="M12.2654 34.4816
L12.3130 34.5293
" />
<path d="M12.3130 34.5293
L12.3606 34.6245
" />
<path d="M12.3606 34.6245
L12.3606 34.8626
" />
<path d="M12.3606 34.8626
L12.3130 34.9578
" />
<path d="M12.3130 34.9578
L12.2654 35.0054
" />
<path d="M12.2654 35.0054
L12.1702 35.0531
" />
<path d="M12.1702 35.0531
L11.8844 35.0531
" />
<path d="M11.8844 35.0531
L11.7892 35.0054
" />
<path d="M11.7892 35.0054
L11.7416 34.9578
" />
<path d="M12.9797 34.0531
L13.0749 34.0531
" />
<path d="M13.0749 34.0531
L13.1702 34.1007
" />
<path d="M13.1702 34.1007
L13.2178 34.1483
" />
<path d="M13.2178 34.1483
L13.2654 34.2435
" />
<path d="M13.2654 34.2435
L13.3130 34.4340
" />
<path d="M13.3130 34.4340
L13.3130 34.6721
" />
<path d="M13.3130 34.6721
L13.2654 34.8626
" />
<path d="M13.2654 34.8626
L13.2178 34.9578
" />
<path d="M13.2178 34.9578
L13.1702 35.0054
" />
<path d="M13.1702 35.0054
L13.0749 35.0531
" />
<path d="M13.0749 35.0531
L12.9797 35.0531
" />
<path d="M12.9797 35.0531
L12.8844 35.0054
" />
<path d="M12.8844 35.0054
L12.8368 34.9578
" />
<path d="M12.8368 34.9578
L12.7892 34.8626
" />
<path d="M12.7892 34.8626
L12.7416 34.6721
" />
<path d="M12.7416 34.6721
L12.7416 34.4340
" />
<path d="M12.7416 34.4340
L12.7892 34.2435
" />
<path d="M12.7892 34.2435
L12.8368 34.1483
" />
<path d="M12.8368 34.1483
L12.8844 34.1007
" />
<path d="M12.8844 34.1007
L12.9797 34.0531
" />
<path d="M13.7892 35.0054
L13.7892 35.0531
" />
<path d="M13.7892 35.0531
L13.7416 35.1483
" />
<path d="M13.7416 35.1483
L13.6940 35.1959
" />
<path d="M14.4082 34.0531
L14.5035 34.0531
" />
<path d="M14.5035 34.0531
L14.5987 34.1007
" />
<path d="M14.5987 34.1007
L14.6463 34.1483
" />
<path d="M14.6463 34.1483
L14.6940 34.2435
" />
<path d="M14.6940 34.2435
L14.7416 34.4340
" />
<path d="M14.7416 34.4340
L14.7416 34.6721
" />
<path d="M14.7416 34.6721
L14.6940 34.8626
" />
<path d="M14.6940 34.8626
L14.6463 34.9578
" />
<path d="M14.6463 34.9578
L14.5987 35.0054
" />
<path d="M14.5987 35.0054
L14.5035 35.0531
" />
<path d="M14.5035 35.0531
L14.4082 35.0531
" />
<path d="M14.4082 35.0531
L14.3130 35.0054
" />
<path d="M14.3130 35.0054
L14.2654 34.9578
" />
<path d="M14.2654 34.9578
L14.2178 34.8626
" />
<path d="M14.2178 34.8626
L14.1702 34.6721
" />
<path d="M14.1702 34.6721
L14.1702 34.4340
" />
<path d="M14.1702 34.4340
L14.2178 34.2435
" />
<path d="M14.2178 34.2435
L14.2654 34.1483
" />
<path d="M14.2654 34.1483
L14.3130 34.1007
" />
<path d="M14.3130 34.1007
L14.4082 34.0531
" />
<path d="M15.3606 34.0531
L15.4559 34.0531
" />
<path d="M15.4559 34.0531
L15.5511 34.1007
" />
<path d="M15.5511 34.1007
L15.5987 34.1483
" />
<path d="M15.5987 34.1483
L15.6463 34.2435
" />
<path d="M15.6463 34.2435
L15.6940 34.4340
" />
<path d="M15.6940 34.4340
L15.6940 34.6721
" />
<path d="M15.6940 34.6721
L15.6463 34.8626
" />
<path d="M15.6463 34.8626
L15.5987 34.9578
" />
<path d="M15.5987 34.9578
L15.5511 35.0054
" />
<path d="M15.5511 35.0054
L15.4559 35.0531
" />
<path d="M15.4559 35.0531
L15.3606 35.0531
" />
<path d="M15.3606 35.0531
L15.2654 35.0054
" />
<path d="M15.2654 35.0054
L15.2178 34.9578
" />
<path d="M15.2178 34.9578
L15.1702 34.8626
" />
<path d="M15.1702 34.8626
L15.1225 34.6721
" />
<path d="M15.1225 34.6721
L15.1225 34.4340
" />
<path d="M15.1225 34.4340
L15.1702 34.2435
" />
<path d="M15.1702 34.2435
L15.2178 34.1483
" />
<path d="M15.2178 34.1483
L15.2654 34.1007
" />
<path d="M15.2654 34.1007
L15.3606 34.0531
" />
<path d="M16.3130 34.0531
L16.4082 34.0531
" />
<path d="M16.4082 34.0531
L16.5035 34.1007
" />
<path d="M16.5035 34.1007
L16.5511 34.1483
" />
<path d="M16.5511 34.1483
L16.5987 34.2435
" />
<path d="M16.5987 34.2435
L16.6463 34.4340
" />
<path d="M16.6463 34.4340
L16.6463 34.6721
" />
<path d="M16.6463 34.6721
L16.5987 34.8626
" />
<path d="M16.5987 34.8626
L16.5511 34.9578
" />
<path d="M16.5511 34.9578
L16.5035 35.0054
" />
<path d="M16.5035 35.0054
L16.4082 35.0531
" />
<path d="M16.4082 35.0531
L16.3130 35.0531
" />
<path d="M16.3130 35.0531
L16.2178 35.0054
" />
<path d="M16.2178 35.0054
L16.1702 34.9578
" />
<path d="M16.1702 34.9578
L16.1225 34.8626
" />
<path d="M16.1225 34.8626
L16.0749 34.6721
" />
<path d="M16.0749 34.6721
L16.0749 34.4340
" />
<path d="M16.0749 34.4340
L16.1225 34.2435
" />
<path d="M16.1225 34.2435
L16.1702 34.1483
" />
<path d="M16.1702 34.1483
L16.2178 34.1007
" />
<path d="M16.2178 34.1007
L16.3130 34.0531
" />
<path d="M17.2654 34.0531
L17.3606 34.0531
" />
<path d="M17.3606 34.0531
L17.4559 34.1007
" />
<path d="M17.4559 34.1007
L17.5035 34.1483
" />
<path d="M17.5035 34.1483
L17.5511 34.2435
" />
<path d="M17.5511 34.2435
L17.5987 34.4340
" />
<path d="M17.5987 34.4340
L17.5987 34.6721
" />
<path d="M17.5987 34.6721
L17.5511 34.8626
" />
<path d="M17.5511 34.8626
L17.5035 34.9578
" />
<path d="M17.5035 34.9578
L17.4559 35.0054
" />
<path d="M17.4559 35.0054
L17.3606 35.0531
" />
<path d="M17.3606 35.0531
L17.2654 35.0531
" />
<path d="M17.2654 35.0531
L17.1702 35.0054
" />
<path d="M17.1702 35.0054
L17.1225 34.9578
" />
<path d="M17.1225 34.9578
L17.0749 34.8626
" />
<path d="M17.0749 34.8626
L17.0273 34.6721
" />
<path d="M17.0273 34.6721
L17.0273 34.4340
" />
<path d="M17.0273 34.4340
L17.0749 34.2435
" />
<path d="M17.0749 34.2435
L17.1225 34.1483
" />
<path d="M17.1225 34.1483
L17.1702 34.1007
" />
<path d="M17.1702 34.1007
L17.2654 34.0531
" />
<path d="M18.7892 35.0531
L18.7892 34.3864
" />
<path d="M18.7892 34.4816
L18.8368 34.4340
" />
<path d="M18.8368 34.4340
L18.9321 34.3864
" />
<path d="M18.9321 34.3864
L19.0749 34.3864
" />
<path d="M19.0749 34.3864
L19.1702 34.4340
" />
<path d="M19.1702 34.4340
L19.2178 34.5293
" />
<path d="M19.2178 34.5293
L19.2178 35.0531
" />
<path d="M19.2178 34.5293
L19.2654 34.4340
" />
<path d="M19.2654 34.4340
L19.3606 34.3864
" />
<path d="M19.3606 34.3864
L19.5035 34.3864
" />
<path d="M19.5035 34.3864
L19.5987 34.4340
" />
<path d="M19.5987 34.4340
L19.6463 34.5293
" />
<path d="M19.6463 34.5293
L19.6463 35.0531
" />
<path d="M20.1225 35.0531
L20.1225 34.3864
" />
<path d="M20.1225 34.4816
L20.1702 34.4340
" />
<path d="M20.1702 34.4340
L20.2654 34.3864
" />
<path d="M20.2654 34.3864
L20.4082 34.3864
" />
<path d="M20.4082 34.3864
L20.5035 34.4340
" />
<path d="M20.5035 34.4340
L20.5511 34.5293
" />
<path d="M20.5511 34.5293
L20.5511 35.0531
" />
<path d="M20.5511 34.5293
L20.5987 34.4340
" />
<path d="M20.5987 34.4340
L20.6940 34.3864
" />
<path d="M20.6940 34.3864
L20.8368 34.3864
" />
<path d="M20.8368 34.3864
L20.9321 34.4340
" />
<path d="M20.9321 34.4340
L20.9797 34.5293
" />
<path d="M20.9797 34.5293
L20.9797 35.0531
" />
</g></g>
<g style="fill:none; 
stroke:#000000; stroke-width:0.1000; stroke-opacity:1; 
stroke-linecap:round; stroke-linejoin:round;">
<path d="M31.4082 30.4982
L31.4082 36.3347
" />
<path d="M1.4083 30.4982
L1.4083 36.3347
" />
<path d="M31.4082 35.7482
L1.4083 35.7482
" />
<path d="M31.4082 35.7482
L1.4083 35.7482
" />
<path d="M31.4082 35.7482
L30.2817 36.3347
" />
<path d="M31.4082 35.7482
L30.2817 35.1618
" />
<path d="M1.4083 35.7482
L2.5348 35.1618
" />
<path d="M1.4083 35.7482
L2.5348 36.3347
" />
</g>
<g style="fill:none; 
stroke:#000000; stroke-width:0.1500; stroke-opacity:1; 
stroke-linecap:round; stroke-linejoin:round;">
<text x="16.6582" y="1.3482"
textLength="9.8690" font-size="1.3333" lengthAdjust="spacingAndGlyphs"
text-anchor="middle" opacity="0">11,5109 mm</text>
<g class="stroked-text"><desc>11,5109 mm</desc>
<path d="M12.6106 1.3031
L12.0392 1.3031
" />
<path d="M12.3249 1.3031
L12.3249 0.3031
" />
<path d="M12.3249 0.3031
L12.2297 0.4459
" />
<path d="M12.2297 0.4459
L12.1344 0.5412
" />
<path d="M12.1344 0.5412
L12.0392 0.5888
" />
<path d="M13.5630 1.3031
L12.9916 1.3031
" />
<path d="M13.2773 1.3031
L13.2773 0.3031
" />
<path d="M13.2773 0.3031
L13.1821 0.4459
" />
<path d="M13.1821 0.4459
L13.0868 0.5412
" />
<path d="M13.0868 0.5412
L12.9916 0.5888
" />
<path d="M14.0392 1.2554
L14.0392 1.3031
" />
<path d="M14.0392 1.3031
L13.9916 1.3983
" />
<path d="M13.9916 1.3983
L13.9440 1.4459
" />
<path d="M14.9440 0.3031
L14.4678 0.3031
" />
<path d="M14.4678 0.3031
L14.4202 0.7793
" />
<path d="M14.4202 0.7793
L14.4678 0.7316
" />
<path d="M14.4678 0.7316
L14.5630 0.6840
" />
<path d="M14.5630 0.6840
L14.8011 0.6840
" />
<path d="M14.8011 0.6840
L14.8963 0.7316
" />
<path d="M14.8963 0.7316
L14.9440 0.7793
" />
<path d="M14.9440 0.7793
L14.9916 0.8745
" />
<path d="M14.9916 0.8745
L14.9916 1.1126
" />
<path d="M14.9916 1.1126
L14.9440 1.2078
" />
<path d="M14.9440 1.2078
L14.8963 1.2554
" />
<path d="M14.8963 1.2554
L14.8011 1.3031
" />
<path d="M14.8011 1.3031
L14.5630 1.3031
" />
<path d="M14.5630 1.3031
L14.4678 1.2554
" />
<path d="M14.4678 1.2554
L14.4202 1.2078
" />
<path d="M15.9440 1.3031
L15.3725 1.3031
" />
<path d="M15.6582 1.3031
L15.6582 0.3031
" />
<path d="M15.6582 0.3031
L15.5630 0.4459
" />
<path d="M15.5630 0.4459
L15.4678 0.5412
" />
<path d="M15.4678 0.5412
L15.3725 0.5888
" />
<path d="M16.5630 0.3031
L16.6582 0.3031
" />
<path d="M16.6582 0.3031
L16.7535 0.3507
" />
<path d="M16.7535 0.3507
L16.8011 0.3983
" />
<path d="M16.8011 0.3983
L16.8487 0.4935
" />
<path d="M16.8487 0.4935
L16.8963 0.6840
" />
<path d="M16.8963 0.6840
L16.8963 0.9221
" />
<path d="M16.8963 0.9221
L16.8487 1.1126
" />
<path d="M16.8487 1.1126
L16.8011 1.2078
" />
<path d="M16.8011 1.2078
L16.7535 1.2554
" />
<path d="M16.7535 1.2554
L16.6582 1.3031
" />
<path d="M16.6582 1.3031
L16.5630 1.3031
" />
<path d="M16.5630 1.3031
L16.4678 1.2554
" />
<path d="M16.4678 1.2554
L16.4202 1.2078
" />
<path d="M16.4202 1.2078
L16.3725 1.1126
" />
<path d="M16.3725 1.1126
L16.3249 0.9221
" />
<path d="M16.3249 0.9221
L16.3249 0.6840
" />
<path d="M16.3249 0.6840
L16.3725 0.4935
" />
<path d="M16.3725 0.4935
L16.4202 0.3983
" />
<path d="M16.4202 0.3983
L16.4678 0.3507
" />
<path d="M16.4678 0.3507
L16.5630 0.3031
" />
<path d="M17.3725 1.3031
L17.5630 1.3031
" />
<path d="M17.5630 1.3031
L17.6582 1.2554
" />
<path d="M17.6582 1.2554
L17.7059 1.2078
" />
<path d="M17.7059 1.2078
L17.8011 1.0650
" />
<path d="M17.8011 1.0650
L17.8487 0.8745
" />
<path d="M17.8487 0.8745
L17.8487 0.4935
" />
<path d="M17.8487 0.4935
L17.8011 0.3983
" />
<path d="M17.8011 0.3983
L17.7535 0.3507
" />
<path d="M17.7535 0.3507
L17.6582 0.3031
" />
<path d="M17.6582 0.3031
L17.4678 0.3031
" />
<path d="M17.4678 0.3031
L17.3725 0.3507
" />
<path d="M17.3725 0.3507
L17.3249 0.3983
" />
<path d="M17.3249 0.3983
L17.2773 0.4935
" />
<path d="M17.2773 0.4935
L17.2773 0.7316
" />
<path d="M17.2773 0.7316
L17.3249 0.8269
" />
<path d="M17.3249 0.8269
L17.3725 0.8745
" />
<path d="M17.3725 0.8745
L17.4678 0.9221
" />
<path d="M17.4678 0.9221
L17.6582 0.9221
" />
<path d="M17.6582 0.9221
L17.7535 0.8745
" />
<path d="M17.7535 0.8745
L17.8011 0.8269
" />
<path d="M17.8011 0.8269
L17.8487 0.7316
" />
<path d="M19.0392 1.3031
L19.0392 0.6364
" />
<path d="M19.0392 0.7316
L19.0868 0.6840
" />
<path d="M19.0868 0.6840
L19.1821 0.6364
" />
<path d="M19.1821 0.6364
L19.3249 0.6364
" />
<path d="M19.3249 0.6364
L19.4202 0.6840
" />
<path d="M19.4202 0.6840
L19.4678 0.7793
" />
<path d="M19.4678 0.7793
L19.4678 1.3031
" />
<path d="M19.4678 0.7793
L19.5154 0.6840
" />
<path d="M19.5154 0.6840
L19.6106 0.6364
" />
<path d="M19.6106 0.6364
L19.7535 0.6364
" />
<path d="M19.7535 0.6364
L19.8487 0.6840
" />
<path d="M19.8487 0.6840
L19.8963 0.7793
" />
<path d="M19.8963 0.7793
L19.8963 1.3031
" />
<path d="M20.3725 1.3031
L20.3725 0.6364
" />
<path d="M20.3725 0.7316
L20.4202 0.6840
" />
<path d="M20.4202 0.6840
L20.5154 0.6364
" />
<path d="M20.5154 0.6364
L20.6582 0.6364
" />
<path d="M20.6582 0.6364
L20.7535 0.6840
" />
<path d="M20.7535 0.6840
L20.8011 0.7793
" />
<path d="M20.8011 0.7793
L20.8011 1.3031
" />
<path d="M20.8011 0.7793
L20.8487 0.6840
" />
<path d="M20.8487 0.6840
L20.9440 0.6364
" />
<path d="M20.9440 0.6364
L21.0868 0.6364
" />
<path d="M21.0868 0.6364
L21.1821 0.6840
" />
<path d="M21.1821 0.6840
L21.2297 0.7793
" />
<path d="M21.2297 0.7793
L21.2297 1.3031
" />
</g></g>
<g style="fill:none; 
stroke:#000000; stroke-width:0.1000; stroke-opacity:1; 
stroke-linecap:round; stroke-linejoin:round;">
<path d="M10.9028 17.9982
L10.9028 1.4118
" />
<path d="M22.4137 17.9982
L22.4137 1.4118
" />
<path d="M10.9028 1.9982
L22.4137 1.9982
" />
<path d="M10.9028 1.9982
L22.4137 1.9982
" />
<path d="M10.9028 1.9982
L12.0293 1.4118
" />
<path d="M10.9028 1.9982
L12.0293 2.5847
" />
<path d="M22.4137 1.9982
L21.2872 2.5847
" />
<path d="M22.4137 1.9982
L21.2872 1.4118
" />
<path style="fill:none; 
stroke:#000000; stroke-width:0.1000; stroke-opacity:1; 
stroke-linecap:round; stroke-linejoin:round;fill:none"
d="M 1.4083,9.9982
31.4082,9.9982
31.4082,29.9982
1.4083,29.9982
Z" /> 
<circle cx="16.6582" cy="18.7482" r="5.7554" /> 
</g> 
</svg>
