<?xml version="1.0" standalone="no"?>
 <!DOCTYPE svg PUBLIC "-//W3C//DTD SVG 1.1//EN" 
 "http://www.w3.org/Graphics/SVG/1.1/DTD/svg11.dtd"> 
<svg
  xmlns:svg="http://www.w3.org/2000/svg"
  xmlns="http://www.w3.org/2000/svg"
  xmlns:xlink="http://www.w3.org/1999/xlink"
  version="1.1"
  width="45.6692mm" height="36.3728mm" viewBox="0.0000 0.0000 45.6692 36.3728">
<title>SVG Image created as Testdruck-R0805-F_Courtyard.svg date 2024/07/20 19:52:07 </title>
  <desc>Image generated by PCBNEW </desc>
<g style="fill:#000000; fill-opacity:1.0000;stroke:#000000; stroke-opacity:1.0000;
stroke-linecap:round; stroke-linejoin:round;"
 transform="translate(0 0) scale(1 1)">
</g>
<g style="fill:none; 
stroke:#000000; stroke-width:0.0500; stroke-opacity:1; 
stroke-linecap:round; stroke-linejoin:round;">
<circle cx="29.9082" cy="11.2482" r="1.2500" /> 
<circle cx="3.4082" cy="11.7482" r="1.2500" /> 
<circle cx="29.9082" cy="28.7482" r="1.2500" /> 
<path d="M22.9082 16.9482
L28.0083 16.9482
" />
<path d="M22.9082 20.2482
L22.9082 16.9482
" />
<path d="M28.0083 16.9482
L28.0083 20.2482
" />
<path d="M28.0083 20.2482
L22.9082 20.2482
" />
<path d="M25.8382 28.6107
L22.4782 28.6107
" />
<path d="M25.8382 26.7107
L25.8382 28.6107
" />
<path d="M22.4782 28.6107
L22.4782 26.7107
" />
<path d="M22.4782 26.7107
L25.8382 26.7107
" />
<path d="M10.4582 20.2482
L5.3582 20.2482
" />
<path d="M10.4582 16.9482
L10.4582 20.2482
" />
<path d="M5.3582 20.2482
L5.3582 16.9482
" />
<path d="M5.3582 16.9482
L10.4582 16.9482
" />
<path d="M6.4082 12.5983
L11.5083 12.5983
" />
<path d="M6.4082 15.8982
L6.4082 12.5983
" />
<path d="M11.5083 12.5983
L11.5083 15.8982
" />
<path d="M11.5083 15.8982
L6.4082 15.8982
" />
<path d="M6.4082 21.2982
L11.5083 21.2982
" />
<path d="M6.4082 24.5983
L6.4082 21.2982
" />
<path d="M11.5083 21.2982
L11.5083 24.5983
" />
<path d="M11.5083 24.5983
L6.4082 24.5983
" />
<path d="M27.0083 15.8982
L21.9082 15.8982
" />
<path d="M27.0083 12.5983
L27.0083 15.8982
" />
<path d="M21.9082 15.8982
L21.9082 12.5983
" />
<path d="M21.9082 12.5983
L27.0083 12.5983
" />
<path d="M1.4083 29.8982
L4.4082 29.8982
" />
<path d="M4.4082 29.8982
L4.4082 27.5983
" />
<path d="M1.4083 27.5983
L1.4083 29.8982
" />
<path d="M4.4082 27.5983
L1.4083 27.5983
" />
<path d="M27.0083 24.5983
L21.9082 24.5983
" />
<path d="M27.0083 21.2982
L27.0083 24.5983
" />
<path d="M21.9082 24.5983
L21.9082 21.2982
" />
<path d="M21.9082 21.2982
L27.0083 21.2982
" />
<path d="M7.3157 26.7982
L10.6757 26.7982
" />
<path d="M7.3157 28.6982
L7.3157 26.7982
" />
<path d="M10.6757 26.7982
L10.6757 28.6982
" />
<path d="M10.6757 28.6982
L7.3157 28.6982
" />
</g> 
</svg>
