<?xml version="1.0" standalone="no"?>
 <!DOCTYPE svg PUBLIC "-//W3C//DTD SVG 1.1//EN" 
 "http://www.w3.org/Graphics/SVG/1.1/DTD/svg11.dtd"> 
<svg
  xmlns:svg="http://www.w3.org/2000/svg"
  xmlns="http://www.w3.org/2000/svg"
  xmlns:xlink="http://www.w3.org/1999/xlink"
  version="1.1"
  width="45.6692mm" height="36.3728mm" viewBox="0.0000 0.0000 45.6692 36.3728">
<title>SVG Image created as Testdruck-R0805-F_Mask.svg date 2024/07/20 19:52:07 </title>
  <desc>Image generated by PCBNEW </desc>
<g style="fill:#000000; fill-opacity:1.0000;stroke:#000000; stroke-opacity:1.0000;
stroke-linecap:round; stroke-linejoin:round;"
 transform="translate(0 0) scale(1 1)">
</g>
<g style="fill:#000000; fill-opacity:1.0000; stroke:none;">
<circle cx="29.9082" cy="11.2482" r="1.0000" /> 
</g>
<g style="fill:#000000; fill-opacity:1.0000; stroke:none;">
<circle cx="3.4082" cy="11.7482" r="1.0000" /> 
</g>
<g style="fill:#000000; fill-opacity:1.0000; stroke:none;">
<circle cx="29.9082" cy="28.7482" r="1.0000" /> 
<path style="fill:#000000; fill-opacity:1.0000; stroke:none;fill-rule:evenodd;"
d="M 23.1582,19.6982
23.1582,17.4982
25.6582,17.4982
25.6582,19.6982
Z" /> 
<path style="fill:#000000; fill-opacity:1.0000; stroke:none;fill-rule:evenodd;"
d="M 26.2082,19.6982
26.2082,17.4982
27.7583,17.4982
27.7583,19.6982
Z" /> 
<path style="fill:#000000; fill-opacity:1.0000; stroke:none;fill-rule:evenodd;"
d="M 23.7583,28.1107
23.7392,28.2064
23.6850,28.2875
23.6039,28.3417
23.5083,28.3607
22.9832,28.3607
22.8876,28.3417
22.8065,28.2875
22.7523,28.2064
22.7332,28.1107
22.7332,27.2107
22.7523,27.1151
22.8065,27.0340
22.8876,26.9798
22.9832,26.9607
23.5083,26.9607
23.6039,26.9798
23.6850,27.0340
23.7392,27.1151
23.7583,27.2107
Z" /> 
<path style="fill:#000000; fill-opacity:1.0000; stroke:none;fill-rule:evenodd;"
d="M 25.5832,28.1107
25.5642,28.2064
25.5100,28.2875
25.4289,28.3417
25.3332,28.3607
24.8082,28.3607
24.7126,28.3417
24.6315,28.2875
24.5773,28.2064
24.5582,28.1107
24.5582,27.2107
24.5773,27.1151
24.6315,27.0340
24.7126,26.9798
24.8082,26.9607
25.3332,26.9607
25.4289,26.9798
25.5100,27.0340
25.5642,27.1151
25.5832,27.2107
Z" /> 
<path style="fill:#000000; fill-opacity:1.0000; stroke:none;fill-rule:evenodd;"
d="M 10.2082,17.4982
10.2082,19.6982
7.7082,19.6982
7.7082,17.4982
Z" /> 
<path style="fill:#000000; fill-opacity:1.0000; stroke:none;fill-rule:evenodd;"
d="M 7.1582,17.4982
7.1582,19.6982
5.6082,19.6982
5.6082,17.4982
Z" /> 
<path style="fill:#000000; fill-opacity:1.0000; stroke:none;fill-rule:evenodd;"
d="M 6.6582,15.3483
6.6582,13.1482
9.1582,13.1482
9.1582,15.3483
Z" /> 
<path style="fill:#000000; fill-opacity:1.0000; stroke:none;fill-rule:evenodd;"
d="M 9.7082,15.3483
9.7082,13.1482
11.2583,13.1482
11.2583,15.3483
Z" /> 
<path style="fill:#000000; fill-opacity:1.0000; stroke:none;fill-rule:evenodd;"
d="M 6.6582,24.0482
6.6582,21.8483
9.1582,21.8483
9.1582,24.0482
Z" /> 
<path style="fill:#000000; fill-opacity:1.0000; stroke:none;fill-rule:evenodd;"
d="M 9.7082,24.0482
9.7082,21.8483
11.2583,21.8483
11.2583,24.0482
Z" /> 
<path style="fill:#000000; fill-opacity:1.0000; stroke:none;fill-rule:evenodd;"
d="M 26.7583,13.1482
26.7583,15.3483
24.2583,15.3483
24.2583,13.1482
Z" /> 
<path style="fill:#000000; fill-opacity:1.0000; stroke:none;fill-rule:evenodd;"
d="M 23.7082,13.1482
23.7082,15.3483
22.1582,15.3483
22.1582,13.1482
Z" /> 
<path style="fill:#000000; fill-opacity:1.0000; stroke:none;fill-rule:evenodd;"
d="M 2.8333,29.1732
1.9832,29.1732
1.9832,28.3232
2.8333,28.3232
Z" /> 
</g>
<g style="fill:#000000; fill-opacity:1.0000; stroke:none;">
<circle cx="3.4082" cy="28.7482" r="0.4250" /> 
<path style="fill:#000000; fill-opacity:1.0000; stroke:none;fill-rule:evenodd;"
d="M 26.7583,21.8483
26.7583,24.0482
24.2583,24.0482
24.2583,21.8483
Z" /> 
<path style="fill:#000000; fill-opacity:1.0000; stroke:none;fill-rule:evenodd;"
d="M 23.7082,21.8483
23.7082,24.0482
22.1582,24.0482
22.1582,21.8483
Z" /> 
<path style="fill:#000000; fill-opacity:1.0000; stroke:none;fill-rule:evenodd;"
d="M 9.3957,27.2982
9.4148,27.2026
9.4690,27.1215
9.5501,27.0673
9.6457,27.0482
10.1707,27.0482
10.2664,27.0673
10.3475,27.1215
10.4017,27.2026
10.4207,27.2982
10.4207,28.1982
10.4017,28.2939
10.3475,28.3750
10.2664,28.4292
10.1707,28.4482
9.6457,28.4482
9.5501,28.4292
9.4690,28.3750
9.4148,28.2939
9.3957,28.1982
Z" /> 
<path style="fill:#000000; fill-opacity:1.0000; stroke:none;fill-rule:evenodd;"
d="M 7.5707,27.2982
7.5898,27.2026
7.6440,27.1215
7.7251,27.0673
7.8207,27.0482
8.3457,27.0482
8.4414,27.0673
8.5225,27.1215
8.5767,27.2026
8.5957,27.2982
8.5957,28.1982
8.5767,28.2939
8.5225,28.3750
8.4414,28.4292
8.3457,28.4482
7.8207,28.4482
7.7251,28.4292
7.6440,28.3750
7.5898,28.2939
7.5707,28.1982
Z" /> 
</g> 
</svg>
