<?xml version="1.0" standalone="no"?>
 <!DOCTYPE svg PUBLIC "-//W3C//DTD SVG 1.1//EN" 
 "http://www.w3.org/Graphics/SVG/1.1/DTD/svg11.dtd"> 
<svg
  xmlns:svg="http://www.w3.org/2000/svg"
  xmlns="http://www.w3.org/2000/svg"
  xmlns:xlink="http://www.w3.org/1999/xlink"
  version="1.1"
  width="45.6692mm" height="36.3728mm" viewBox="0.0000 0.0000 45.6692 36.3728">
<title>SVG Image created as Testdruck-R0805-F_Fab.svg date 2024/07/20 19:52:07 </title>
  <desc>Image generated by PCBNEW </desc>
<g style="fill:#000000; fill-opacity:1.0000;stroke:#000000; stroke-opacity:1.0000;
stroke-linecap:round; stroke-linejoin:round;"
 transform="translate(0 0) scale(1 1)">
</g>
<g style="fill:none; 
stroke:#000000; stroke-width:0.1500; stroke-opacity:1; 
stroke-linecap:round; stroke-linejoin:round;">
<text x="29.9082" y="13.7482"
textLength="6.1548" font-size="1.3333" lengthAdjust="spacingAndGlyphs"
text-anchor="middle" opacity="0">Fiducial</text>
<g class="stroked-text"><desc>Fiducial</desc>
<path d="M27.5273 13.1793
L27.1940 13.1793
" />
<path d="M27.1940 13.7031
L27.1940 12.7031
" />
<path d="M27.1940 12.7031
L27.6702 12.7031
" />
<path d="M28.0511 13.7031
L28.0511 13.0364
" />
<path d="M28.0511 12.7031
L28.0035 12.7507
" />
<path d="M28.0035 12.7507
L28.0511 12.7983
" />
<path d="M28.0511 12.7983
L28.0987 12.7507
" />
<path d="M28.0987 12.7507
L28.0511 12.7031
" />
<path d="M28.0511 12.7031
L28.0511 12.7983
" />
<path d="M28.9559 13.7031
L28.9559 12.7031
" />
<path d="M28.9559 13.6555
L28.8606 13.7031
" />
<path d="M28.8606 13.7031
L28.6702 13.7031
" />
<path d="M28.6702 13.7031
L28.5749 13.6555
" />
<path d="M28.5749 13.6555
L28.5273 13.6078
" />
<path d="M28.5273 13.6078
L28.4797 13.5126
" />
<path d="M28.4797 13.5126
L28.4797 13.2269
" />
<path d="M28.4797 13.2269
L28.5273 13.1316
" />
<path d="M28.5273 13.1316
L28.5749 13.0840
" />
<path d="M28.5749 13.0840
L28.6702 13.0364
" />
<path d="M28.6702 13.0364
L28.8606 13.0364
" />
<path d="M28.8606 13.0364
L28.9559 13.0840
" />
<path d="M29.8606 13.0364
L29.8606 13.7031
" />
<path d="M29.4321 13.0364
L29.4321 13.5602
" />
<path d="M29.4321 13.5602
L29.4797 13.6555
" />
<path d="M29.4797 13.6555
L29.5749 13.7031
" />
<path d="M29.5749 13.7031
L29.7178 13.7031
" />
<path d="M29.7178 13.7031
L29.8130 13.6555
" />
<path d="M29.8130 13.6555
L29.8606 13.6078
" />
<path d="M30.7654 13.6555
L30.6702 13.7031
" />
<path d="M30.6702 13.7031
L30.4797 13.7031
" />
<path d="M30.4797 13.7031
L30.3844 13.6555
" />
<path d="M30.3844 13.6555
L30.3368 13.6078
" />
<path d="M30.3368 13.6078
L30.2892 13.5126
" />
<path d="M30.2892 13.5126
L30.2892 13.2269
" />
<path d="M30.2892 13.2269
L30.3368 13.1316
" />
<path d="M30.3368 13.1316
L30.3844 13.0840
" />
<path d="M30.3844 13.0840
L30.4797 13.0364
" />
<path d="M30.4797 13.0364
L30.6702 13.0364
" />
<path d="M30.6702 13.0364
L30.7654 13.0840
" />
<path d="M31.1940 13.7031
L31.1940 13.0364
" />
<path d="M31.1940 12.7031
L31.1463 12.7507
" />
<path d="M31.1463 12.7507
L31.1940 12.7983
" />
<path d="M31.1940 12.7983
L31.2416 12.7507
" />
<path d="M31.2416 12.7507
L31.1940 12.7031
" />
<path d="M31.1940 12.7031
L31.1940 12.7983
" />
<path d="M32.0987 13.7031
L32.0987 13.1793
" />
<path d="M32.0987 13.1793
L32.0511 13.0840
" />
<path d="M32.0511 13.0840
L31.9559 13.0364
" />
<path d="M31.9559 13.0364
L31.7654 13.0364
" />
<path d="M31.7654 13.0364
L31.6702 13.0840
" />
<path d="M32.0987 13.6555
L32.0035 13.7031
" />
<path d="M32.0035 13.7031
L31.7654 13.7031
" />
<path d="M31.7654 13.7031
L31.6702 13.6555
" />
<path d="M31.6702 13.6555
L31.6225 13.5602
" />
<path d="M31.6225 13.5602
L31.6225 13.4650
" />
<path d="M31.6225 13.4650
L31.6702 13.3697
" />
<path d="M31.6702 13.3697
L31.7654 13.3221
" />
<path d="M31.7654 13.3221
L32.0035 13.3221
" />
<path d="M32.0035 13.3221
L32.0987 13.2745
" />
<path d="M32.7178 13.7031
L32.6225 13.6555
" />
<path d="M32.6225 13.6555
L32.5749 13.5602
" />
<path d="M32.5749 13.5602
L32.5749 12.7031
" />
</g></g>
<g style="fill:none; 
stroke:#000000; stroke-width:0.0600; stroke-opacity:1; 
stroke-linecap:round; stroke-linejoin:round;">
<text x="29.9082" y="11.4482"
textLength="1.4143" font-size="0.5333" lengthAdjust="spacingAndGlyphs"
text-anchor="middle" opacity="0">FID3</text>
<g class="stroked-text"><desc>FID3</desc>
<path d="M29.4797 11.2207
L29.3463 11.2207
" />
<path d="M29.3463 11.4302
L29.3463 11.0302
" />
<path d="M29.3463 11.0302
L29.5368 11.0302
" />
<path d="M29.6892 11.4302
L29.6892 11.0302
" />
<path d="M29.8797 11.4302
L29.8797 11.0302
" />
<path d="M29.8797 11.0302
L29.9749 11.0302
" />
<path d="M29.9749 11.0302
L30.0321 11.0492
" />
<path d="M30.0321 11.0492
L30.0702 11.0873
" />
<path d="M30.0702 11.0873
L30.0892 11.1254
" />
<path d="M30.0892 11.1254
L30.1082 11.2016
" />
<path d="M30.1082 11.2016
L30.1082 11.2587
" />
<path d="M30.1082 11.2587
L30.0892 11.3349
" />
<path d="M30.0892 11.3349
L30.0702 11.3730
" />
<path d="M30.0702 11.3730
L30.0321 11.4111
" />
<path d="M30.0321 11.4111
L29.9749 11.4302
" />
<path d="M29.9749 11.4302
L29.8797 11.4302
" />
<path d="M30.2416 11.0302
L30.4892 11.0302
" />
<path d="M30.4892 11.0302
L30.3559 11.1826
" />
<path d="M30.3559 11.1826
L30.4130 11.1826
" />
<path d="M30.4130 11.1826
L30.4511 11.2016
" />
<path d="M30.4511 11.2016
L30.4702 11.2207
" />
<path d="M30.4702 11.2207
L30.4892 11.2587
" />
<path d="M30.4892 11.2587
L30.4892 11.3540
" />
<path d="M30.4892 11.3540
L30.4702 11.3921
" />
<path d="M30.4702 11.3921
L30.4511 11.4111
" />
<path d="M30.4511 11.4111
L30.4130 11.4302
" />
<path d="M30.4130 11.4302
L30.2987 11.4302
" />
<path d="M30.2987 11.4302
L30.2606 11.4111
" />
<path d="M30.2606 11.4111
L30.2416 11.3921
" />
</g></g>
<g style="fill:none; 
stroke:#000000; stroke-width:0.1500; stroke-opacity:1; 
stroke-linecap:round; stroke-linejoin:round;">
<text x="3.4082" y="14.2482"
textLength="6.1548" font-size="1.3333" lengthAdjust="spacingAndGlyphs"
text-anchor="middle" opacity="0">Fiducial</text>
<g class="stroked-text"><desc>Fiducial</desc>
<path d="M1.0273 13.6793
L0.6940 13.6793
" />
<path d="M0.6940 14.2031
L0.6940 13.2031
" />
<path d="M0.6940 13.2031
L1.1702 13.2031
" />
<path d="M1.5511 14.2031
L1.5511 13.5364
" />
<path d="M1.5511 13.2031
L1.5035 13.2507
" />
<path d="M1.5035 13.2507
L1.5511 13.2983
" />
<path d="M1.5511 13.2983
L1.5987 13.2507
" />
<path d="M1.5987 13.2507
L1.5511 13.2031
" />
<path d="M1.5511 13.2031
L1.5511 13.2983
" />
<path d="M2.4559 14.2031
L2.4559 13.2031
" />
<path d="M2.4559 14.1555
L2.3606 14.2031
" />
<path d="M2.3606 14.2031
L2.1702 14.2031
" />
<path d="M2.1702 14.2031
L2.0749 14.1555
" />
<path d="M2.0749 14.1555
L2.0273 14.1078
" />
<path d="M2.0273 14.1078
L1.9797 14.0126
" />
<path d="M1.9797 14.0126
L1.9797 13.7269
" />
<path d="M1.9797 13.7269
L2.0273 13.6316
" />
<path d="M2.0273 13.6316
L2.0749 13.5840
" />
<path d="M2.0749 13.5840
L2.1702 13.5364
" />
<path d="M2.1702 13.5364
L2.3606 13.5364
" />
<path d="M2.3606 13.5364
L2.4559 13.5840
" />
<path d="M3.3606 13.5364
L3.3606 14.2031
" />
<path d="M2.9321 13.5364
L2.9321 14.0602
" />
<path d="M2.9321 14.0602
L2.9797 14.1555
" />
<path d="M2.9797 14.1555
L3.0749 14.2031
" />
<path d="M3.0749 14.2031
L3.2178 14.2031
" />
<path d="M3.2178 14.2031
L3.3130 14.1555
" />
<path d="M3.3130 14.1555
L3.3606 14.1078
" />
<path d="M4.2654 14.1555
L4.1702 14.2031
" />
<path d="M4.1702 14.2031
L3.9797 14.2031
" />
<path d="M3.9797 14.2031
L3.8844 14.1555
" />
<path d="M3.8844 14.1555
L3.8368 14.1078
" />
<path d="M3.8368 14.1078
L3.7892 14.0126
" />
<path d="M3.7892 14.0126
L3.7892 13.7269
" />
<path d="M3.7892 13.7269
L3.8368 13.6316
" />
<path d="M3.8368 13.6316
L3.8844 13.5840
" />
<path d="M3.8844 13.5840
L3.9797 13.5364
" />
<path d="M3.9797 13.5364
L4.1702 13.5364
" />
<path d="M4.1702 13.5364
L4.2654 13.5840
" />
<path d="M4.6940 14.2031
L4.6940 13.5364
" />
<path d="M4.6940 13.2031
L4.6463 13.2507
" />
<path d="M4.6463 13.2507
L4.6940 13.2983
" />
<path d="M4.6940 13.2983
L4.7416 13.2507
" />
<path d="M4.7416 13.2507
L4.6940 13.2031
" />
<path d="M4.6940 13.2031
L4.6940 13.2983
" />
<path d="M5.5987 14.2031
L5.5987 13.6793
" />
<path d="M5.5987 13.6793
L5.5511 13.5840
" />
<path d="M5.5511 13.5840
L5.4559 13.5364
" />
<path d="M5.4559 13.5364
L5.2654 13.5364
" />
<path d="M5.2654 13.5364
L5.1702 13.5840
" />
<path d="M5.5987 14.1555
L5.5035 14.2031
" />
<path d="M5.5035 14.2031
L5.2654 14.2031
" />
<path d="M5.2654 14.2031
L5.1702 14.1555
" />
<path d="M5.1702 14.1555
L5.1225 14.0602
" />
<path d="M5.1225 14.0602
L5.1225 13.9650
" />
<path d="M5.1225 13.9650
L5.1702 13.8697
" />
<path d="M5.1702 13.8697
L5.2654 13.8221
" />
<path d="M5.2654 13.8221
L5.5035 13.8221
" />
<path d="M5.5035 13.8221
L5.5987 13.7745
" />
<path d="M6.2178 14.2031
L6.1225 14.1555
" />
<path d="M6.1225 14.1555
L6.0749 14.0602
" />
<path d="M6.0749 14.0602
L6.0749 13.2031
" />
</g></g>
<g style="fill:none; 
stroke:#000000; stroke-width:0.0600; stroke-opacity:1; 
stroke-linecap:round; stroke-linejoin:round;">
<text x="3.4082" y="11.9482"
textLength="1.4143" font-size="0.5333" lengthAdjust="spacingAndGlyphs"
text-anchor="middle" opacity="0">FID2</text>
<g class="stroked-text"><desc>FID2</desc>
<path d="M2.9797 11.7207
L2.8463 11.7207
" />
<path d="M2.8463 11.9302
L2.8463 11.5302
" />
<path d="M2.8463 11.5302
L3.0368 11.5302
" />
<path d="M3.1892 11.9302
L3.1892 11.5302
" />
<path d="M3.3797 11.9302
L3.3797 11.5302
" />
<path d="M3.3797 11.5302
L3.4749 11.5302
" />
<path d="M3.4749 11.5302
L3.5321 11.5492
" />
<path d="M3.5321 11.5492
L3.5702 11.5873
" />
<path d="M3.5702 11.5873
L3.5892 11.6254
" />
<path d="M3.5892 11.6254
L3.6082 11.7016
" />
<path d="M3.6082 11.7016
L3.6082 11.7587
" />
<path d="M3.6082 11.7587
L3.5892 11.8349
" />
<path d="M3.5892 11.8349
L3.5702 11.8730
" />
<path d="M3.5702 11.8730
L3.5321 11.9111
" />
<path d="M3.5321 11.9111
L3.4749 11.9302
" />
<path d="M3.4749 11.9302
L3.3797 11.9302
" />
<path d="M3.7606 11.5683
L3.7797 11.5492
" />
<path d="M3.7797 11.5492
L3.8178 11.5302
" />
<path d="M3.8178 11.5302
L3.9130 11.5302
" />
<path d="M3.9130 11.5302
L3.9511 11.5492
" />
<path d="M3.9511 11.5492
L3.9702 11.5683
" />
<path d="M3.9702 11.5683
L3.9892 11.6064
" />
<path d="M3.9892 11.6064
L3.9892 11.6445
" />
<path d="M3.9892 11.6445
L3.9702 11.7016
" />
<path d="M3.9702 11.7016
L3.7416 11.9302
" />
<path d="M3.7416 11.9302
L3.9892 11.9302
" />
</g></g>
<g style="fill:none; 
stroke:#000000; stroke-width:0.1500; stroke-opacity:1; 
stroke-linecap:round; stroke-linejoin:round;">
<text x="29.9082" y="31.2482"
textLength="6.1548" font-size="1.3333" lengthAdjust="spacingAndGlyphs"
text-anchor="middle" opacity="0">Fiducial</text>
<g class="stroked-text"><desc>Fiducial</desc>
<path d="M27.5273 30.6793
L27.1940 30.6793
" />
<path d="M27.1940 31.2031
L27.1940 30.2031
" />
<path d="M27.1940 30.2031
L27.6702 30.2031
" />
<path d="M28.0511 31.2031
L28.0511 30.5364
" />
<path d="M28.0511 30.2031
L28.0035 30.2507
" />
<path d="M28.0035 30.2507
L28.0511 30.2983
" />
<path d="M28.0511 30.2983
L28.0987 30.2507
" />
<path d="M28.0987 30.2507
L28.0511 30.2031
" />
<path d="M28.0511 30.2031
L28.0511 30.2983
" />
<path d="M28.9559 31.2031
L28.9559 30.2031
" />
<path d="M28.9559 31.1554
L28.8606 31.2031
" />
<path d="M28.8606 31.2031
L28.6702 31.2031
" />
<path d="M28.6702 31.2031
L28.5749 31.1554
" />
<path d="M28.5749 31.1554
L28.5273 31.1078
" />
<path d="M28.5273 31.1078
L28.4797 31.0126
" />
<path d="M28.4797 31.0126
L28.4797 30.7269
" />
<path d="M28.4797 30.7269
L28.5273 30.6316
" />
<path d="M28.5273 30.6316
L28.5749 30.5840
" />
<path d="M28.5749 30.5840
L28.6702 30.5364
" />
<path d="M28.6702 30.5364
L28.8606 30.5364
" />
<path d="M28.8606 30.5364
L28.9559 30.5840
" />
<path d="M29.8606 30.5364
L29.8606 31.2031
" />
<path d="M29.4321 30.5364
L29.4321 31.0602
" />
<path d="M29.4321 31.0602
L29.4797 31.1554
" />
<path d="M29.4797 31.1554
L29.5749 31.2031
" />
<path d="M29.5749 31.2031
L29.7178 31.2031
" />
<path d="M29.7178 31.2031
L29.8130 31.1554
" />
<path d="M29.8130 31.1554
L29.8606 31.1078
" />
<path d="M30.7654 31.1554
L30.6702 31.2031
" />
<path d="M30.6702 31.2031
L30.4797 31.2031
" />
<path d="M30.4797 31.2031
L30.3844 31.1554
" />
<path d="M30.3844 31.1554
L30.3368 31.1078
" />
<path d="M30.3368 31.1078
L30.2892 31.0126
" />
<path d="M30.2892 31.0126
L30.2892 30.7269
" />
<path d="M30.2892 30.7269
L30.3368 30.6316
" />
<path d="M30.3368 30.6316
L30.3844 30.5840
" />
<path d="M30.3844 30.5840
L30.4797 30.5364
" />
<path d="M30.4797 30.5364
L30.6702 30.5364
" />
<path d="M30.6702 30.5364
L30.7654 30.5840
" />
<path d="M31.1940 31.2031
L31.1940 30.5364
" />
<path d="M31.1940 30.2031
L31.1463 30.2507
" />
<path d="M31.1463 30.2507
L31.1940 30.2983
" />
<path d="M31.1940 30.2983
L31.2416 30.2507
" />
<path d="M31.2416 30.2507
L31.1940 30.2031
" />
<path d="M31.1940 30.2031
L31.1940 30.2983
" />
<path d="M32.0987 31.2031
L32.0987 30.6793
" />
<path d="M32.0987 30.6793
L32.0511 30.5840
" />
<path d="M32.0511 30.5840
L31.9559 30.5364
" />
<path d="M31.9559 30.5364
L31.7654 30.5364
" />
<path d="M31.7654 30.5364
L31.6702 30.5840
" />
<path d="M32.0987 31.1554
L32.0035 31.2031
" />
<path d="M32.0035 31.2031
L31.7654 31.2031
" />
<path d="M31.7654 31.2031
L31.6702 31.1554
" />
<path d="M31.6702 31.1554
L31.6225 31.0602
" />
<path d="M31.6225 31.0602
L31.6225 30.9650
" />
<path d="M31.6225 30.9650
L31.6702 30.8697
" />
<path d="M31.6702 30.8697
L31.7654 30.8221
" />
<path d="M31.7654 30.8221
L32.0035 30.8221
" />
<path d="M32.0035 30.8221
L32.0987 30.7745
" />
<path d="M32.7178 31.2031
L32.6225 31.1554
" />
<path d="M32.6225 31.1554
L32.5749 31.0602
" />
<path d="M32.5749 31.0602
L32.5749 30.2031
" />
</g></g>
<g style="fill:none; 
stroke:#000000; stroke-width:0.0600; stroke-opacity:1; 
stroke-linecap:round; stroke-linejoin:round;">
<text x="29.9082" y="28.9482"
textLength="1.4143" font-size="0.5333" lengthAdjust="spacingAndGlyphs"
text-anchor="middle" opacity="0">FID1</text>
<g class="stroked-text"><desc>FID1</desc>
<path d="M29.4797 28.7207
L29.3463 28.7207
" />
<path d="M29.3463 28.9302
L29.3463 28.5302
" />
<path d="M29.3463 28.5302
L29.5368 28.5302
" />
<path d="M29.6892 28.9302
L29.6892 28.5302
" />
<path d="M29.8797 28.9302
L29.8797 28.5302
" />
<path d="M29.8797 28.5302
L29.9749 28.5302
" />
<path d="M29.9749 28.5302
L30.0321 28.5492
" />
<path d="M30.0321 28.5492
L30.0702 28.5873
" />
<path d="M30.0702 28.5873
L30.0892 28.6254
" />
<path d="M30.0892 28.6254
L30.1082 28.7016
" />
<path d="M30.1082 28.7016
L30.1082 28.7587
" />
<path d="M30.1082 28.7587
L30.0892 28.8349
" />
<path d="M30.0892 28.8349
L30.0702 28.8730
" />
<path d="M30.0702 28.8730
L30.0321 28.9111
" />
<path d="M30.0321 28.9111
L29.9749 28.9302
" />
<path d="M29.9749 28.9302
L29.8797 28.9302
" />
<path d="M30.4892 28.9302
L30.2606 28.9302
" />
<path d="M30.3749 28.9302
L30.3749 28.5302
" />
<path d="M30.3749 28.5302
L30.3368 28.5873
" />
<path d="M30.3368 28.5873
L30.2987 28.6254
" />
<path d="M30.2987 28.6254
L30.2606 28.6445
" />
</g></g>
<g style="fill:none; 
stroke:#000000; stroke-width:0.1500; stroke-opacity:1; 
stroke-linecap:round; stroke-linejoin:round;">
<text x="25.4582" y="19.0983"
textLength="2.9643" font-size="1.3333" lengthAdjust="spacingAndGlyphs"
text-anchor="middle" opacity="0">LED</text>
<g class="stroked-text"><desc>LED</desc>
<path d="M24.8154 19.0531
L24.3392 19.0531
" />
<path d="M24.3392 19.0531
L24.3392 18.0531
" />
<path d="M25.1487 18.5293
L25.4821 18.5293
" />
<path d="M25.6249 19.0531
L25.1487 19.0531
" />
<path d="M25.1487 19.0531
L25.1487 18.0531
" />
<path d="M25.1487 18.0531
L25.6249 18.0531
" />
<path d="M26.0535 19.0531
L26.0535 18.0531
" />
<path d="M26.0535 18.0531
L26.2916 18.0531
" />
<path d="M26.2916 18.0531
L26.4344 18.1007
" />
<path d="M26.4344 18.1007
L26.5297 18.1959
" />
<path d="M26.5297 18.1959
L26.5773 18.2912
" />
<path d="M26.5773 18.2912
L26.6249 18.4816
" />
<path d="M26.6249 18.4816
L26.6249 18.6245
" />
<path d="M26.6249 18.6245
L26.5773 18.8150
" />
<path d="M26.5773 18.8150
L26.5297 18.9102
" />
<path d="M26.5297 18.9102
L26.4344 19.0054
" />
<path d="M26.4344 19.0054
L26.2916 19.0531
" />
<path d="M26.2916 19.0531
L26.0535 19.0531
" />
</g></g>
<g style="fill:none; 
stroke:#000000; stroke-width:0.1350; stroke-opacity:1; 
stroke-linecap:round; stroke-linejoin:round;">
<text x="25.4582" y="19.0482"
textLength="1.9821" font-size="1.2000" lengthAdjust="spacingAndGlyphs"
text-anchor="middle" opacity="0">D5</text>
<g class="stroked-text"><desc>D5</desc>
<path d="M24.7940 19.0076
L24.7940 18.1076
" />
<path d="M24.7940 18.1076
L25.0083 18.1076
" />
<path d="M25.0083 18.1076
L25.1368 18.1504
" />
<path d="M25.1368 18.1504
L25.2225 18.2362
" />
<path d="M25.2225 18.2362
L25.2654 18.3219
" />
<path d="M25.2654 18.3219
L25.3082 18.4933
" />
<path d="M25.3082 18.4933
L25.3082 18.6219
" />
<path d="M25.3082 18.6219
L25.2654 18.7933
" />
<path d="M25.2654 18.7933
L25.2225 18.8790
" />
<path d="M25.2225 18.8790
L25.1368 18.9647
" />
<path d="M25.1368 18.9647
L25.0083 19.0076
" />
<path d="M25.0083 19.0076
L24.7940 19.0076
" />
<path d="M26.1225 18.1076
L25.6940 18.1076
" />
<path d="M25.6940 18.1076
L25.6511 18.5362
" />
<path d="M25.6511 18.5362
L25.6940 18.4933
" />
<path d="M25.6940 18.4933
L25.7797 18.4504
" />
<path d="M25.7797 18.4504
L25.9940 18.4504
" />
<path d="M25.9940 18.4504
L26.0797 18.4933
" />
<path d="M26.0797 18.4933
L26.1225 18.5362
" />
<path d="M26.1225 18.5362
L26.1654 18.6219
" />
<path d="M26.1654 18.6219
L26.1654 18.8362
" />
<path d="M26.1654 18.8362
L26.1225 18.9219
" />
<path d="M26.1225 18.9219
L26.0797 18.9647
" />
<path d="M26.0797 18.9647
L25.9940 19.0076
" />
<path d="M25.9940 19.0076
L25.7797 19.0076
" />
<path d="M25.7797 19.0076
L25.6940 18.9647
" />
<path d="M25.6940 18.9647
L25.6511 18.9219
" />
</g></g>
<g style="fill:none; 
stroke:#000000; stroke-width:0.1500; stroke-opacity:1; 
stroke-linecap:round; stroke-linejoin:round;">
<text x="24.1582" y="26.5107"
textLength="3.1071" font-size="1.3333" lengthAdjust="spacingAndGlyphs"
text-anchor="middle" opacity="0">100</text>
<g class="stroked-text"><desc>100</desc>
<path d="M23.4916 26.4656
L22.9202 26.4656
" />
<path d="M23.2059 26.4656
L23.2059 25.4656
" />
<path d="M23.2059 25.4656
L23.1106 25.6084
" />
<path d="M23.1106 25.6084
L23.0154 25.7037
" />
<path d="M23.0154 25.7037
L22.9202 25.7513
" />
<path d="M24.1106 25.4656
L24.2059 25.4656
" />
<path d="M24.2059 25.4656
L24.3011 25.5132
" />
<path d="M24.3011 25.5132
L24.3487 25.5608
" />
<path d="M24.3487 25.5608
L24.3963 25.6560
" />
<path d="M24.3963 25.6560
L24.4440 25.8465
" />
<path d="M24.4440 25.8465
L24.4440 26.0846
" />
<path d="M24.4440 26.0846
L24.3963 26.2751
" />
<path d="M24.3963 26.2751
L24.3487 26.3703
" />
<path d="M24.3487 26.3703
L24.3011 26.4179
" />
<path d="M24.3011 26.4179
L24.2059 26.4656
" />
<path d="M24.2059 26.4656
L24.1106 26.4656
" />
<path d="M24.1106 26.4656
L24.0154 26.4179
" />
<path d="M24.0154 26.4179
L23.9678 26.3703
" />
<path d="M23.9678 26.3703
L23.9202 26.2751
" />
<path d="M23.9202 26.2751
L23.8725 26.0846
" />
<path d="M23.8725 26.0846
L23.8725 25.8465
" />
<path d="M23.8725 25.8465
L23.9202 25.6560
" />
<path d="M23.9202 25.6560
L23.9678 25.5608
" />
<path d="M23.9678 25.5608
L24.0154 25.5132
" />
<path d="M24.0154 25.5132
L24.1106 25.4656
" />
<path d="M25.0630 25.4656
L25.1582 25.4656
" />
<path d="M25.1582 25.4656
L25.2535 25.5132
" />
<path d="M25.2535 25.5132
L25.3011 25.5608
" />
<path d="M25.3011 25.5608
L25.3487 25.6560
" />
<path d="M25.3487 25.6560
L25.3963 25.8465
" />
<path d="M25.3963 25.8465
L25.3963 26.0846
" />
<path d="M25.3963 26.0846
L25.3487 26.2751
" />
<path d="M25.3487 26.2751
L25.3011 26.3703
" />
<path d="M25.3011 26.3703
L25.2535 26.4179
" />
<path d="M25.2535 26.4179
L25.1582 26.4656
" />
<path d="M25.1582 26.4656
L25.0630 26.4656
" />
<path d="M25.0630 26.4656
L24.9678 26.4179
" />
<path d="M24.9678 26.4179
L24.9202 26.3703
" />
<path d="M24.9202 26.3703
L24.8725 26.2751
" />
<path d="M24.8725 26.2751
L24.8249 26.0846
" />
<path d="M24.8249 26.0846
L24.8249 25.8465
" />
<path d="M24.8249 25.8465
L24.8725 25.6560
" />
<path d="M24.8725 25.6560
L24.9202 25.5608
" />
<path d="M24.9202 25.5608
L24.9678 25.5132
" />
<path d="M24.9678 25.5132
L25.0630 25.4656
" />
</g></g>
<g style="fill:none; 
stroke:#000000; stroke-width:0.0800; stroke-opacity:1; 
stroke-linecap:round; stroke-linejoin:round;">
<text x="24.1582" y="27.9108"
textLength="1.1162" font-size="0.6667" lengthAdjust="spacingAndGlyphs"
text-anchor="middle" opacity="0">R2</text>
<g class="stroked-text"><desc>R2</desc>
<path d="M24.0749 27.8879
L23.9082 27.6498
" />
<path d="M23.7892 27.8879
L23.7892 27.3879
" />
<path d="M23.7892 27.3879
L23.9797 27.3879
" />
<path d="M23.9797 27.3879
L24.0273 27.4117
" />
<path d="M24.0273 27.4117
L24.0511 27.4355
" />
<path d="M24.0511 27.4355
L24.0749 27.4831
" />
<path d="M24.0749 27.4831
L24.0749 27.5546
" />
<path d="M24.0749 27.5546
L24.0511 27.6022
" />
<path d="M24.0511 27.6022
L24.0273 27.6260
" />
<path d="M24.0273 27.6260
L23.9797 27.6498
" />
<path d="M23.9797 27.6498
L23.7892 27.6498
" />
<path d="M24.2654 27.4355
L24.2892 27.4117
" />
<path d="M24.2892 27.4117
L24.3368 27.3879
" />
<path d="M24.3368 27.3879
L24.4559 27.3879
" />
<path d="M24.4559 27.3879
L24.5035 27.4117
" />
<path d="M24.5035 27.4117
L24.5273 27.4355
" />
<path d="M24.5273 27.4355
L24.5511 27.4831
" />
<path d="M24.5511 27.4831
L24.5511 27.5308
" />
<path d="M24.5511 27.5308
L24.5273 27.6022
" />
<path d="M24.5273 27.6022
L24.2416 27.8879
" />
<path d="M24.2416 27.8879
L24.5511 27.8879
" />
</g></g>
<g style="fill:none; 
stroke:#000000; stroke-width:0.1500; stroke-opacity:1; 
stroke-linecap:round; stroke-linejoin:round;">
<text x="7.8582" y="19.7482"
textLength="2.9643" font-size="1.3333" lengthAdjust="spacingAndGlyphs"
text-anchor="middle" opacity="0">LED</text>
<g class="stroked-text"><desc>LED</desc>
<path d="M7.2154 19.7031
L6.7392 19.7031
" />
<path d="M6.7392 19.7031
L6.7392 18.7031
" />
<path d="M7.5487 19.1793
L7.8821 19.1793
" />
<path d="M8.0249 19.7031
L7.5487 19.7031
" />
<path d="M7.5487 19.7031
L7.5487 18.7031
" />
<path d="M7.5487 18.7031
L8.0249 18.7031
" />
<path d="M8.4535 19.7031
L8.4535 18.7031
" />
<path d="M8.4535 18.7031
L8.6916 18.7031
" />
<path d="M8.6916 18.7031
L8.8344 18.7507
" />
<path d="M8.8344 18.7507
L8.9297 18.8459
" />
<path d="M8.9297 18.8459
L8.9773 18.9412
" />
<path d="M8.9773 18.9412
L9.0249 19.1316
" />
<path d="M9.0249 19.1316
L9.0249 19.2745
" />
<path d="M9.0249 19.2745
L8.9773 19.4650
" />
<path d="M8.9773 19.4650
L8.9297 19.5602
" />
<path d="M8.9297 19.5602
L8.8344 19.6554
" />
<path d="M8.8344 19.6554
L8.6916 19.7031
" />
<path d="M8.6916 19.7031
L8.4535 19.7031
" />
</g></g>
<g style="fill:none; 
stroke:#000000; stroke-width:0.1350; stroke-opacity:1; 
stroke-linecap:round; stroke-linejoin:round;">
<text x="7.9082" y="19.0482"
textLength="1.9821" font-size="1.2000" lengthAdjust="spacingAndGlyphs"
text-anchor="middle" opacity="0">D2</text>
<g class="stroked-text"><desc>D2</desc>
<path d="M7.2440 19.0076
L7.2440 18.1076
" />
<path d="M7.2440 18.1076
L7.4582 18.1076
" />
<path d="M7.4582 18.1076
L7.5868 18.1504
" />
<path d="M7.5868 18.1504
L7.6725 18.2362
" />
<path d="M7.6725 18.2362
L7.7154 18.3219
" />
<path d="M7.7154 18.3219
L7.7582 18.4933
" />
<path d="M7.7582 18.4933
L7.7582 18.6219
" />
<path d="M7.7582 18.6219
L7.7154 18.7933
" />
<path d="M7.7154 18.7933
L7.6725 18.8790
" />
<path d="M7.6725 18.8790
L7.5868 18.9647
" />
<path d="M7.5868 18.9647
L7.4582 19.0076
" />
<path d="M7.4582 19.0076
L7.2440 19.0076
" />
<path d="M8.1011 18.1933
L8.1440 18.1504
" />
<path d="M8.1440 18.1504
L8.2297 18.1076
" />
<path d="M8.2297 18.1076
L8.4440 18.1076
" />
<path d="M8.4440 18.1076
L8.5297 18.1504
" />
<path d="M8.5297 18.1504
L8.5725 18.1933
" />
<path d="M8.5725 18.1933
L8.6154 18.2790
" />
<path d="M8.6154 18.2790
L8.6154 18.3647
" />
<path d="M8.6154 18.3647
L8.5725 18.4933
" />
<path d="M8.5725 18.4933
L8.0582 19.0076
" />
<path d="M8.0582 19.0076
L8.6154 19.0076
" />
</g></g>
<g style="fill:none; 
stroke:#000000; stroke-width:0.1500; stroke-opacity:1; 
stroke-linecap:round; stroke-linejoin:round;">
<text x="8.9582" y="14.7482"
textLength="2.9643" font-size="1.3333" lengthAdjust="spacingAndGlyphs"
text-anchor="middle" opacity="0">LED</text>
<g class="stroked-text"><desc>LED</desc>
<path d="M8.3154 14.7031
L7.8392 14.7031
" />
<path d="M7.8392 14.7031
L7.8392 13.7031
" />
<path d="M8.6487 14.1793
L8.9821 14.1793
" />
<path d="M9.1249 14.7031
L8.6487 14.7031
" />
<path d="M8.6487 14.7031
L8.6487 13.7031
" />
<path d="M8.6487 13.7031
L9.1249 13.7031
" />
<path d="M9.5535 14.7031
L9.5535 13.7031
" />
<path d="M9.5535 13.7031
L9.7916 13.7031
" />
<path d="M9.7916 13.7031
L9.9344 13.7507
" />
<path d="M9.9344 13.7507
L10.0297 13.8459
" />
<path d="M10.0297 13.8459
L10.0773 13.9412
" />
<path d="M10.0773 13.9412
L10.1249 14.1316
" />
<path d="M10.1249 14.1316
L10.1249 14.2745
" />
<path d="M10.1249 14.2745
L10.0773 14.4650
" />
<path d="M10.0773 14.4650
L10.0297 14.5602
" />
<path d="M10.0297 14.5602
L9.9344 14.6555
" />
<path d="M9.9344 14.6555
L9.7916 14.7031
" />
<path d="M9.7916 14.7031
L9.5535 14.7031
" />
</g></g>
<g style="fill:none; 
stroke:#000000; stroke-width:0.1350; stroke-opacity:1; 
stroke-linecap:round; stroke-linejoin:round;">
<text x="8.9582" y="14.6982"
textLength="1.9821" font-size="1.2000" lengthAdjust="spacingAndGlyphs"
text-anchor="middle" opacity="0">D1</text>
<g class="stroked-text"><desc>D1</desc>
<path d="M8.2940 14.6576
L8.2940 13.7576
" />
<path d="M8.2940 13.7576
L8.5083 13.7576
" />
<path d="M8.5083 13.7576
L8.6368 13.8004
" />
<path d="M8.6368 13.8004
L8.7225 13.8862
" />
<path d="M8.7225 13.8862
L8.7654 13.9719
" />
<path d="M8.7654 13.9719
L8.8082 14.1433
" />
<path d="M8.8082 14.1433
L8.8082 14.2719
" />
<path d="M8.8082 14.2719
L8.7654 14.4433
" />
<path d="M8.7654 14.4433
L8.7225 14.5290
" />
<path d="M8.7225 14.5290
L8.6368 14.6147
" />
<path d="M8.6368 14.6147
L8.5083 14.6576
" />
<path d="M8.5083 14.6576
L8.2940 14.6576
" />
<path d="M9.6654 14.6576
L9.1511 14.6576
" />
<path d="M9.4082 14.6576
L9.4082 13.7576
" />
<path d="M9.4082 13.7576
L9.3225 13.8862
" />
<path d="M9.3225 13.8862
L9.2368 13.9719
" />
<path d="M9.2368 13.9719
L9.1511 14.0147
" />
</g></g>
<g style="fill:none; 
stroke:#000000; stroke-width:0.1500; stroke-opacity:1; 
stroke-linecap:round; stroke-linejoin:round;">
<text x="8.9582" y="23.4482"
textLength="2.9643" font-size="1.3333" lengthAdjust="spacingAndGlyphs"
text-anchor="middle" opacity="0">LED</text>
<g class="stroked-text"><desc>LED</desc>
<path d="M8.3154 23.4031
L7.8392 23.4031
" />
<path d="M7.8392 23.4031
L7.8392 22.4031
" />
<path d="M8.6487 22.8793
L8.9821 22.8793
" />
<path d="M9.1249 23.4031
L8.6487 23.4031
" />
<path d="M8.6487 23.4031
L8.6487 22.4031
" />
<path d="M8.6487 22.4031
L9.1249 22.4031
" />
<path d="M9.5535 23.4031
L9.5535 22.4031
" />
<path d="M9.5535 22.4031
L9.7916 22.4031
" />
<path d="M9.7916 22.4031
L9.9344 22.4507
" />
<path d="M9.9344 22.4507
L10.0297 22.5459
" />
<path d="M10.0297 22.5459
L10.0773 22.6412
" />
<path d="M10.0773 22.6412
L10.1249 22.8316
" />
<path d="M10.1249 22.8316
L10.1249 22.9745
" />
<path d="M10.1249 22.9745
L10.0773 23.1650
" />
<path d="M10.0773 23.1650
L10.0297 23.2602
" />
<path d="M10.0297 23.2602
L9.9344 23.3554
" />
<path d="M9.9344 23.3554
L9.7916 23.4031
" />
<path d="M9.7916 23.4031
L9.5535 23.4031
" />
</g></g>
<g style="fill:none; 
stroke:#000000; stroke-width:0.1350; stroke-opacity:1; 
stroke-linecap:round; stroke-linejoin:round;">
<text x="8.9582" y="23.3982"
textLength="1.9821" font-size="1.2000" lengthAdjust="spacingAndGlyphs"
text-anchor="middle" opacity="0">D3</text>
<g class="stroked-text"><desc>D3</desc>
<path d="M8.2940 23.3576
L8.2940 22.4576
" />
<path d="M8.2940 22.4576
L8.5083 22.4576
" />
<path d="M8.5083 22.4576
L8.6368 22.5004
" />
<path d="M8.6368 22.5004
L8.7225 22.5862
" />
<path d="M8.7225 22.5862
L8.7654 22.6719
" />
<path d="M8.7654 22.6719
L8.8082 22.8433
" />
<path d="M8.8082 22.8433
L8.8082 22.9719
" />
<path d="M8.8082 22.9719
L8.7654 23.1433
" />
<path d="M8.7654 23.1433
L8.7225 23.2290
" />
<path d="M8.7225 23.2290
L8.6368 23.3147
" />
<path d="M8.6368 23.3147
L8.5083 23.3576
" />
<path d="M8.5083 23.3576
L8.2940 23.3576
" />
<path d="M9.1082 22.4576
L9.6654 22.4576
" />
<path d="M9.6654 22.4576
L9.3654 22.8004
" />
<path d="M9.3654 22.8004
L9.4940 22.8004
" />
<path d="M9.4940 22.8004
L9.5797 22.8433
" />
<path d="M9.5797 22.8433
L9.6225 22.8862
" />
<path d="M9.6225 22.8862
L9.6654 22.9719
" />
<path d="M9.6654 22.9719
L9.6654 23.1862
" />
<path d="M9.6654 23.1862
L9.6225 23.2719
" />
<path d="M9.6225 23.2719
L9.5797 23.3147
" />
<path d="M9.5797 23.3147
L9.4940 23.3576
" />
<path d="M9.4940 23.3576
L9.2368 23.3576
" />
<path d="M9.2368 23.3576
L9.1511 23.3147
" />
<path d="M9.1511 23.3147
L9.1082 23.2719
" />
</g></g>
<g style="fill:none; 
stroke:#000000; stroke-width:0.1500; stroke-opacity:1; 
stroke-linecap:round; stroke-linejoin:round;">
<text x="24.4582" y="14.7482"
textLength="2.9643" font-size="1.3333" lengthAdjust="spacingAndGlyphs"
text-anchor="middle" opacity="0">LED</text>
<g class="stroked-text"><desc>LED</desc>
<path d="M23.8154 14.7031
L23.3392 14.7031
" />
<path d="M23.3392 14.7031
L23.3392 13.7031
" />
<path d="M24.1487 14.1793
L24.4821 14.1793
" />
<path d="M24.6249 14.7031
L24.1487 14.7031
" />
<path d="M24.1487 14.7031
L24.1487 13.7031
" />
<path d="M24.1487 13.7031
L24.6249 13.7031
" />
<path d="M25.0535 14.7031
L25.0535 13.7031
" />
<path d="M25.0535 13.7031
L25.2916 13.7031
" />
<path d="M25.2916 13.7031
L25.4344 13.7507
" />
<path d="M25.4344 13.7507
L25.5297 13.8459
" />
<path d="M25.5297 13.8459
L25.5773 13.9412
" />
<path d="M25.5773 13.9412
L25.6249 14.1316
" />
<path d="M25.6249 14.1316
L25.6249 14.2745
" />
<path d="M25.6249 14.2745
L25.5773 14.4650
" />
<path d="M25.5773 14.4650
L25.5297 14.5602
" />
<path d="M25.5297 14.5602
L25.4344 14.6555
" />
<path d="M25.4344 14.6555
L25.2916 14.7031
" />
<path d="M25.2916 14.7031
L25.0535 14.7031
" />
</g></g>
<g style="fill:none; 
stroke:#000000; stroke-width:0.1350; stroke-opacity:1; 
stroke-linecap:round; stroke-linejoin:round;">
<text x="24.4582" y="14.6982"
textLength="1.9821" font-size="1.2000" lengthAdjust="spacingAndGlyphs"
text-anchor="middle" opacity="0">D4</text>
<g class="stroked-text"><desc>D4</desc>
<path d="M23.7940 14.6576
L23.7940 13.7576
" />
<path d="M23.7940 13.7576
L24.0083 13.7576
" />
<path d="M24.0083 13.7576
L24.1368 13.8004
" />
<path d="M24.1368 13.8004
L24.2225 13.8862
" />
<path d="M24.2225 13.8862
L24.2654 13.9719
" />
<path d="M24.2654 13.9719
L24.3082 14.1433
" />
<path d="M24.3082 14.1433
L24.3082 14.2719
" />
<path d="M24.3082 14.2719
L24.2654 14.4433
" />
<path d="M24.2654 14.4433
L24.2225 14.5290
" />
<path d="M24.2225 14.5290
L24.1368 14.6147
" />
<path d="M24.1368 14.6147
L24.0083 14.6576
" />
<path d="M24.0083 14.6576
L23.7940 14.6576
" />
<path d="M25.0797 14.0576
L25.0797 14.6576
" />
<path d="M24.8654 13.7147
L24.6511 14.3576
" />
<path d="M24.6511 14.3576
L25.2082 14.3576
" />
</g></g>
<g style="fill:none; 
stroke:#000000; stroke-width:0.1500; stroke-opacity:1; 
stroke-linecap:round; stroke-linejoin:round;">
<g transform="rotate(-90.000000 4.9682 28.7482)">
<text x="4.9682" y="29.2482"
textLength="12.4881" font-size="1.3333" lengthAdjust="spacingAndGlyphs"
text-anchor="middle" opacity="0">Conn_01x02_Pin</text>
</g>
<g class="stroked-text"><desc>Conn_01x02_Pin</desc>
<path d="M5.3278 34.0578
L5.3754 34.1054
" />
<path d="M5.3754 34.1054
L5.4231 34.2482
" />
<path d="M5.4231 34.2482
L5.4231 34.3435
" />
<path d="M5.4231 34.3435
L5.3754 34.4863
" />
<path d="M5.3754 34.4863
L5.2802 34.5816
" />
<path d="M5.2802 34.5816
L5.1850 34.6292
" />
<path d="M5.1850 34.6292
L4.9945 34.6768
" />
<path d="M4.9945 34.6768
L4.8516 34.6768
" />
<path d="M4.8516 34.6768
L4.6612 34.6292
" />
<path d="M4.6612 34.6292
L4.5659 34.5816
" />
<path d="M4.5659 34.5816
L4.4707 34.4863
" />
<path d="M4.4707 34.4863
L4.4231 34.3435
" />
<path d="M4.4231 34.3435
L4.4231 34.2482
" />
<path d="M4.4231 34.2482
L4.4707 34.1054
" />
<path d="M4.4707 34.1054
L4.5183 34.0578
" />
<path d="M5.4231 33.4863
L5.3754 33.5816
" />
<path d="M5.3754 33.5816
L5.3278 33.6292
" />
<path d="M5.3278 33.6292
L5.2326 33.6768
" />
<path d="M5.2326 33.6768
L4.9469 33.6768
" />
<path d="M4.9469 33.6768
L4.8516 33.6292
" />
<path d="M4.8516 33.6292
L4.8040 33.5816
" />
<path d="M4.8040 33.5816
L4.7564 33.4863
" />
<path d="M4.7564 33.4863
L4.7564 33.3435
" />
<path d="M4.7564 33.3435
L4.8040 33.2482
" />
<path d="M4.8040 33.2482
L4.8516 33.2006
" />
<path d="M4.8516 33.2006
L4.9469 33.1530
" />
<path d="M4.9469 33.1530
L5.2326 33.1530
" />
<path d="M5.2326 33.1530
L5.3278 33.2006
" />
<path d="M5.3278 33.2006
L5.3754 33.2482
" />
<path d="M5.3754 33.2482
L5.4231 33.3435
" />
<path d="M5.4231 33.3435
L5.4231 33.4863
" />
<path d="M4.7564 32.7244
L5.4231 32.7244
" />
<path d="M4.8516 32.7244
L4.8040 32.6768
" />
<path d="M4.8040 32.6768
L4.7564 32.5816
" />
<path d="M4.7564 32.5816
L4.7564 32.4387
" />
<path d="M4.7564 32.4387
L4.8040 32.3435
" />
<path d="M4.8040 32.3435
L4.8993 32.2959
" />
<path d="M4.8993 32.2959
L5.4231 32.2959
" />
<path d="M4.7564 31.8197
L5.4231 31.8197
" />
<path d="M4.8516 31.8197
L4.8040 31.7721
" />
<path d="M4.8040 31.7721
L4.7564 31.6768
" />
<path d="M4.7564 31.6768
L4.7564 31.5340
" />
<path d="M4.7564 31.5340
L4.8040 31.4387
" />
<path d="M4.8040 31.4387
L4.8993 31.3911
" />
<path d="M4.8993 31.3911
L5.4231 31.3911
" />
<path d="M5.5183 31.1530
L5.5183 30.3911
" />
<path d="M4.4231 29.9625
L4.4231 29.8673
" />
<path d="M4.4231 29.8673
L4.4707 29.7721
" />
<path d="M4.4707 29.7721
L4.5183 29.7244
" />
<path d="M4.5183 29.7244
L4.6135 29.6768
" />
<path d="M4.6135 29.6768
L4.8040 29.6292
" />
<path d="M4.8040 29.6292
L5.0421 29.6292
" />
<path d="M5.0421 29.6292
L5.2326 29.6768
" />
<path d="M5.2326 29.6768
L5.3278 29.7244
" />
<path d="M5.3278 29.7244
L5.3754 29.7721
" />
<path d="M5.3754 29.7721
L5.4231 29.8673
" />
<path d="M5.4231 29.8673
L5.4231 29.9625
" />
<path d="M5.4231 29.9625
L5.3754 30.0578
" />
<path d="M5.3754 30.0578
L5.3278 30.1054
" />
<path d="M5.3278 30.1054
L5.2326 30.1530
" />
<path d="M5.2326 30.1530
L5.0421 30.2006
" />
<path d="M5.0421 30.2006
L4.8040 30.2006
" />
<path d="M4.8040 30.2006
L4.6135 30.1530
" />
<path d="M4.6135 30.1530
L4.5183 30.1054
" />
<path d="M4.5183 30.1054
L4.4707 30.0578
" />
<path d="M4.4707 30.0578
L4.4231 29.9625
" />
<path d="M5.4231 28.6768
L5.4231 29.2482
" />
<path d="M5.4231 28.9625
L4.4231 28.9625
" />
<path d="M4.4231 28.9625
L4.5659 29.0578
" />
<path d="M4.5659 29.0578
L4.6612 29.1530
" />
<path d="M4.6612 29.1530
L4.7088 29.2482
" />
<path d="M5.4231 28.3435
L4.7564 27.8197
" />
<path d="M4.7564 28.3435
L5.4231 27.8197
" />
<path d="M4.4231 27.2482
L4.4231 27.1530
" />
<path d="M4.4231 27.1530
L4.4707 27.0578
" />
<path d="M4.4707 27.0578
L4.5183 27.0102
" />
<path d="M4.5183 27.0102
L4.6135 26.9625
" />
<path d="M4.6135 26.9625
L4.8040 26.9149
" />
<path d="M4.8040 26.9149
L5.0421 26.9149
" />
<path d="M5.0421 26.9149
L5.2326 26.9625
" />
<path d="M5.2326 26.9625
L5.3278 27.0102
" />
<path d="M5.3278 27.0102
L5.3754 27.0578
" />
<path d="M5.3754 27.0578
L5.4231 27.1530
" />
<path d="M5.4231 27.1530
L5.4231 27.2482
" />
<path d="M5.4231 27.2482
L5.3754 27.3435
" />
<path d="M5.3754 27.3435
L5.3278 27.3911
" />
<path d="M5.3278 27.3911
L5.2326 27.4387
" />
<path d="M5.2326 27.4387
L5.0421 27.4863
" />
<path d="M5.0421 27.4863
L4.8040 27.4863
" />
<path d="M4.8040 27.4863
L4.6135 27.4387
" />
<path d="M4.6135 27.4387
L4.5183 27.3911
" />
<path d="M4.5183 27.3911
L4.4707 27.3435
" />
<path d="M4.4707 27.3435
L4.4231 27.2482
" />
<path d="M4.5183 26.5340
L4.4707 26.4863
" />
<path d="M4.4707 26.4863
L4.4231 26.3911
" />
<path d="M4.4231 26.3911
L4.4231 26.1530
" />
<path d="M4.4231 26.1530
L4.4707 26.0578
" />
<path d="M4.4707 26.0578
L4.5183 26.0102
" />
<path d="M4.5183 26.0102
L4.6135 25.9625
" />
<path d="M4.6135 25.9625
L4.7088 25.9625
" />
<path d="M4.7088 25.9625
L4.8516 26.0102
" />
<path d="M4.8516 26.0102
L5.4231 26.5816
" />
<path d="M5.4231 26.5816
L5.4231 25.9625
" />
<path d="M5.5183 25.7721
L5.5183 25.0102
" />
<path d="M5.4231 24.7721
L4.4231 24.7721
" />
<path d="M4.4231 24.7721
L4.4231 24.3911
" />
<path d="M4.4231 24.3911
L4.4707 24.2959
" />
<path d="M4.4707 24.2959
L4.5183 24.2482
" />
<path d="M4.5183 24.2482
L4.6135 24.2006
" />
<path d="M4.6135 24.2006
L4.7564 24.2006
" />
<path d="M4.7564 24.2006
L4.8516 24.2482
" />
<path d="M4.8516 24.2482
L4.8993 24.2959
" />
<path d="M4.8993 24.2959
L4.9469 24.3911
" />
<path d="M4.9469 24.3911
L4.9469 24.7721
" />
<path d="M5.4231 23.7721
L4.7564 23.7721
" />
<path d="M4.4231 23.7721
L4.4707 23.8197
" />
<path d="M4.4707 23.8197
L4.5183 23.7721
" />
<path d="M4.5183 23.7721
L4.4707 23.7244
" />
<path d="M4.4707 23.7244
L4.4231 23.7721
" />
<path d="M4.4231 23.7721
L4.5183 23.7721
" />
<path d="M4.7564 23.2959
L5.4231 23.2959
" />
<path d="M4.8516 23.2959
L4.8040 23.2482
" />
<path d="M4.8040 23.2482
L4.7564 23.1530
" />
<path d="M4.7564 23.1530
L4.7564 23.0102
" />
<path d="M4.7564 23.0102
L4.8040 22.9149
" />
<path d="M4.8040 22.9149
L4.8993 22.8673
" />
<path d="M4.8993 22.8673
L5.4231 22.8673
" />
</g></g>
<g style="fill:none; 
stroke:#000000; stroke-width:0.1140; stroke-opacity:1; 
stroke-linecap:round; stroke-linejoin:round;">
<text x="2.9082" y="29.1282"
textLength="1.4929" font-size="1.0133" lengthAdjust="spacingAndGlyphs"
text-anchor="middle" opacity="0">J1</text>
<g class="stroked-text"><desc>J1</desc>
<path d="M2.6549 28.3339
L2.6549 28.8768
" />
<path d="M2.6549 28.8768
L2.6187 28.9853
" />
<path d="M2.6187 28.9853
L2.5463 29.0577
" />
<path d="M2.5463 29.0577
L2.4378 29.0939
" />
<path d="M2.4378 29.0939
L2.3654 29.0939
" />
<path d="M3.4149 29.0939
L2.9806 29.0939
" />
<path d="M3.1978 29.0939
L3.1978 28.3339
" />
<path d="M3.1978 28.3339
L3.1254 28.4425
" />
<path d="M3.1254 28.4425
L3.0530 28.5149
" />
<path d="M3.0530 28.5149
L2.9806 28.5511
" />
</g></g>
<g style="fill:none; 
stroke:#000000; stroke-width:0.1500; stroke-opacity:1; 
stroke-linecap:round; stroke-linejoin:round;">
<text x="24.4582" y="23.4482"
textLength="2.9643" font-size="1.3333" lengthAdjust="spacingAndGlyphs"
text-anchor="middle" opacity="0">LED</text>
<g class="stroked-text"><desc>LED</desc>
<path d="M23.8154 23.4031
L23.3392 23.4031
" />
<path d="M23.3392 23.4031
L23.3392 22.4031
" />
<path d="M24.1487 22.8793
L24.4821 22.8793
" />
<path d="M24.6249 23.4031
L24.1487 23.4031
" />
<path d="M24.1487 23.4031
L24.1487 22.4031
" />
<path d="M24.1487 22.4031
L24.6249 22.4031
" />
<path d="M25.0535 23.4031
L25.0535 22.4031
" />
<path d="M25.0535 22.4031
L25.2916 22.4031
" />
<path d="M25.2916 22.4031
L25.4344 22.4507
" />
<path d="M25.4344 22.4507
L25.5297 22.5459
" />
<path d="M25.5297 22.5459
L25.5773 22.6412
" />
<path d="M25.5773 22.6412
L25.6249 22.8316
" />
<path d="M25.6249 22.8316
L25.6249 22.9745
" />
<path d="M25.6249 22.9745
L25.5773 23.1650
" />
<path d="M25.5773 23.1650
L25.5297 23.2602
" />
<path d="M25.5297 23.2602
L25.4344 23.3554
" />
<path d="M25.4344 23.3554
L25.2916 23.4031
" />
<path d="M25.2916 23.4031
L25.0535 23.4031
" />
</g></g>
<g style="fill:none; 
stroke:#000000; stroke-width:0.1350; stroke-opacity:1; 
stroke-linecap:round; stroke-linejoin:round;">
<text x="24.4582" y="23.3982"
textLength="1.9821" font-size="1.2000" lengthAdjust="spacingAndGlyphs"
text-anchor="middle" opacity="0">D6</text>
<g class="stroked-text"><desc>D6</desc>
<path d="M23.7940 23.3576
L23.7940 22.4576
" />
<path d="M23.7940 22.4576
L24.0083 22.4576
" />
<path d="M24.0083 22.4576
L24.1368 22.5004
" />
<path d="M24.1368 22.5004
L24.2225 22.5862
" />
<path d="M24.2225 22.5862
L24.2654 22.6719
" />
<path d="M24.2654 22.6719
L24.3082 22.8433
" />
<path d="M24.3082 22.8433
L24.3082 22.9719
" />
<path d="M24.3082 22.9719
L24.2654 23.1433
" />
<path d="M24.2654 23.1433
L24.2225 23.2290
" />
<path d="M24.2225 23.2290
L24.1368 23.3147
" />
<path d="M24.1368 23.3147
L24.0083 23.3576
" />
<path d="M24.0083 23.3576
L23.7940 23.3576
" />
<path d="M25.0797 22.4576
L24.9082 22.4576
" />
<path d="M24.9082 22.4576
L24.8225 22.5004
" />
<path d="M24.8225 22.5004
L24.7797 22.5433
" />
<path d="M24.7797 22.5433
L24.6940 22.6719
" />
<path d="M24.6940 22.6719
L24.6511 22.8433
" />
<path d="M24.6511 22.8433
L24.6511 23.1862
" />
<path d="M24.6511 23.1862
L24.6940 23.2719
" />
<path d="M24.6940 23.2719
L24.7368 23.3147
" />
<path d="M24.7368 23.3147
L24.8225 23.3576
" />
<path d="M24.8225 23.3576
L24.9940 23.3576
" />
<path d="M24.9940 23.3576
L25.0797 23.3147
" />
<path d="M25.0797 23.3147
L25.1225 23.2719
" />
<path d="M25.1225 23.2719
L25.1654 23.1862
" />
<path d="M25.1654 23.1862
L25.1654 22.9719
" />
<path d="M25.1654 22.9719
L25.1225 22.8862
" />
<path d="M25.1225 22.8862
L25.0797 22.8433
" />
<path d="M25.0797 22.8433
L24.9940 22.8004
" />
<path d="M24.9940 22.8004
L24.8225 22.8004
" />
<path d="M24.8225 22.8004
L24.7368 22.8433
" />
<path d="M24.7368 22.8433
L24.6940 22.8862
" />
<path d="M24.6940 22.8862
L24.6511 22.9719
" />
</g></g>
<g style="fill:none; 
stroke:#000000; stroke-width:0.1500; stroke-opacity:1; 
stroke-linecap:round; stroke-linejoin:round;">
<text x="8.9957" y="29.8982"
textLength="3.1071" font-size="1.3333" lengthAdjust="spacingAndGlyphs"
text-anchor="middle" opacity="0">100</text>
<g class="stroked-text"><desc>100</desc>
<path d="M8.3291 29.8531
L7.7577 29.8531
" />
<path d="M8.0434 29.8531
L8.0434 28.8531
" />
<path d="M8.0434 28.8531
L7.9481 28.9959
" />
<path d="M7.9481 28.9959
L7.8529 29.0912
" />
<path d="M7.8529 29.0912
L7.7577 29.1388
" />
<path d="M8.9481 28.8531
L9.0434 28.8531
" />
<path d="M9.0434 28.8531
L9.1386 28.9007
" />
<path d="M9.1386 28.9007
L9.1862 28.9483
" />
<path d="M9.1862 28.9483
L9.2338 29.0435
" />
<path d="M9.2338 29.0435
L9.2815 29.2340
" />
<path d="M9.2815 29.2340
L9.2815 29.4721
" />
<path d="M9.2815 29.4721
L9.2338 29.6626
" />
<path d="M9.2338 29.6626
L9.1862 29.7578
" />
<path d="M9.1862 29.7578
L9.1386 29.8054
" />
<path d="M9.1386 29.8054
L9.0434 29.8531
" />
<path d="M9.0434 29.8531
L8.9481 29.8531
" />
<path d="M8.9481 29.8531
L8.8529 29.8054
" />
<path d="M8.8529 29.8054
L8.8053 29.7578
" />
<path d="M8.8053 29.7578
L8.7577 29.6626
" />
<path d="M8.7577 29.6626
L8.7100 29.4721
" />
<path d="M8.7100 29.4721
L8.7100 29.2340
" />
<path d="M8.7100 29.2340
L8.7577 29.0435
" />
<path d="M8.7577 29.0435
L8.8053 28.9483
" />
<path d="M8.8053 28.9483
L8.8529 28.9007
" />
<path d="M8.8529 28.9007
L8.9481 28.8531
" />
<path d="M9.9005 28.8531
L9.9957 28.8531
" />
<path d="M9.9957 28.8531
L10.0910 28.9007
" />
<path d="M10.0910 28.9007
L10.1386 28.9483
" />
<path d="M10.1386 28.9483
L10.1862 29.0435
" />
<path d="M10.1862 29.0435
L10.2338 29.2340
" />
<path d="M10.2338 29.2340
L10.2338 29.4721
" />
<path d="M10.2338 29.4721
L10.1862 29.6626
" />
<path d="M10.1862 29.6626
L10.1386 29.7578
" />
<path d="M10.1386 29.7578
L10.0910 29.8054
" />
<path d="M10.0910 29.8054
L9.9957 29.8531
" />
<path d="M9.9957 29.8531
L9.9005 29.8531
" />
<path d="M9.9005 29.8531
L9.8053 29.8054
" />
<path d="M9.8053 29.8054
L9.7577 29.7578
" />
<path d="M9.7577 29.7578
L9.7100 29.6626
" />
<path d="M9.7100 29.6626
L9.6624 29.4721
" />
<path d="M9.6624 29.4721
L9.6624 29.2340
" />
<path d="M9.6624 29.2340
L9.7100 29.0435
" />
<path d="M9.7100 29.0435
L9.7577 28.9483
" />
<path d="M9.7577 28.9483
L9.8053 28.9007
" />
<path d="M9.8053 28.9007
L9.9005 28.8531
" />
</g></g>
<g style="fill:none; 
stroke:#000000; stroke-width:0.0800; stroke-opacity:1; 
stroke-linecap:round; stroke-linejoin:round;">
<text x="8.9957" y="27.9982"
textLength="1.1162" font-size="0.6667" lengthAdjust="spacingAndGlyphs"
text-anchor="middle" opacity="0">R1</text>
<g class="stroked-text"><desc>R1</desc>
<path d="M8.9124 27.9754
L8.7457 27.7373
" />
<path d="M8.6267 27.9754
L8.6267 27.4754
" />
<path d="M8.6267 27.4754
L8.8172 27.4754
" />
<path d="M8.8172 27.4754
L8.8648 27.4992
" />
<path d="M8.8648 27.4992
L8.8886 27.5230
" />
<path d="M8.8886 27.5230
L8.9124 27.5706
" />
<path d="M8.9124 27.5706
L8.9124 27.6421
" />
<path d="M8.9124 27.6421
L8.8886 27.6897
" />
<path d="M8.8886 27.6897
L8.8648 27.7135
" />
<path d="M8.8648 27.7135
L8.8172 27.7373
" />
<path d="M8.8172 27.7373
L8.6267 27.7373
" />
<path d="M9.3886 27.9754
L9.1029 27.9754
" />
<path d="M9.2457 27.9754
L9.2457 27.4754
" />
<path d="M9.2457 27.4754
L9.1981 27.5468
" />
<path d="M9.1981 27.5468
L9.1505 27.5944
" />
<path d="M9.1505 27.5944
L9.1029 27.6183
" />
</g></g>
<g style="fill:none; 
stroke:#000000; stroke-width:0.1000; stroke-opacity:1; 
stroke-linecap:round; stroke-linejoin:round;">
<circle cx="29.9082" cy="11.2482" r="1.0000" /> 
<circle cx="3.4082" cy="11.7482" r="1.0000" /> 
<circle cx="29.9082" cy="28.7482" r="1.0000" /> 
<path d="M23.7082 19.9982
L23.7082 17.8983
" />
<path d="M24.4082 17.1982
L23.7082 17.8983
" />
<path d="M24.4082 17.1982
L27.2082 17.1982
" />
<path d="M27.2082 17.1982
L27.2082 19.9982
" />
<path d="M27.2082 19.9982
L23.7082 19.9982
" />
<path d="M25.1582 28.2858
L23.1582 28.2858
" />
<path d="M25.1582 27.0358
L25.1582 28.2858
" />
<path d="M23.1582 28.2858
L23.1582 27.0358
" />
<path d="M23.1582 27.0358
L25.1582 27.0358
" />
<path d="M9.6582 17.1982
L9.6582 19.2982
" />
<path d="M8.9582 19.9982
L9.6582 19.2982
" />
<path d="M8.9582 19.9982
L6.1582 19.9982
" />
<path d="M6.1582 19.9982
L6.1582 17.1982
" />
<path d="M6.1582 17.1982
L9.6582 17.1982
" />
<path d="M7.2082 15.6482
L7.2082 13.5482
" />
<path d="M7.9082 12.8483
L7.2082 13.5482
" />
<path d="M7.9082 12.8483
L10.7082 12.8483
" />
<path d="M10.7082 12.8483
L10.7082 15.6482
" />
<path d="M10.7082 15.6482
L7.2082 15.6482
" />
<path d="M7.2082 24.3483
L7.2082 22.2482
" />
<path d="M7.9082 21.5482
L7.2082 22.2482
" />
<path d="M7.9082 21.5482
L10.7082 21.5482
" />
<path d="M10.7082 21.5482
L10.7082 24.3483
" />
<path d="M10.7082 24.3483
L7.2082 24.3483
" />
<path d="M26.2082 12.8483
L26.2082 14.9482
" />
<path d="M25.5083 15.6482
L26.2082 14.9482
" />
<path d="M25.5083 15.6482
L22.7082 15.6482
" />
<path d="M22.7082 15.6482
L22.7082 12.8483
" />
<path d="M22.7082 12.8483
L26.2082 12.8483
" />
<path d="M2.2258 29.3833
L1.9083 29.0657
" />
<path d="M3.9082 29.3833
L2.2258 29.3833
" />
<path d="M1.9083 29.0657
L1.9083 28.1132
" />
<path d="M1.9083 28.1132
L3.9082 28.1132
" />
<path d="M3.9082 28.1132
L3.9082 29.3833
" />
<path d="M26.2082 21.5482
L26.2082 23.6482
" />
<path d="M25.5083 24.3483
L26.2082 23.6482
" />
<path d="M25.5083 24.3483
L22.7082 24.3483
" />
<path d="M22.7082 24.3483
L22.7082 21.5482
" />
<path d="M22.7082 21.5482
L26.2082 21.5482
" />
<path d="M7.9957 27.1232
L9.9957 27.1232
" />
<path d="M7.9957 28.3732
L7.9957 27.1232
" />
<path d="M9.9957 27.1232
L9.9957 28.3732
" />
<path d="M9.9957 28.3732
L7.9957 28.3732
" />
</g> 
</svg>
