<?xml version="1.0" standalone="no"?>
 <!DOCTYPE svg PUBLIC "-//W3C//DTD SVG 1.1//EN" 
 "http://www.w3.org/Graphics/SVG/1.1/DTD/svg11.dtd"> 
<svg
  xmlns:svg="http://www.w3.org/2000/svg"
  xmlns="http://www.w3.org/2000/svg"
  xmlns:xlink="http://www.w3.org/1999/xlink"
  version="1.1"
  width="45.6692mm" height="36.3728mm" viewBox="0.0000 0.0000 45.6692 36.3728">
<title>SVG Image created as Testdruck-R0805-F_Silkscreen.svg date 2024/07/20 19:52:07 </title>
  <desc>Image generated by PCBNEW </desc>
<g style="fill:#000000; fill-opacity:1.0000;stroke:#000000; stroke-opacity:1.0000;
stroke-linecap:round; stroke-linejoin:round;"
 transform="translate(0 0) scale(1 1)">
</g>
<g style="fill:none; 
stroke:#000000; stroke-width:0.1500; stroke-opacity:1; 
stroke-linecap:round; stroke-linejoin:round;">
<text x="26.9082" y="11.7482"
textLength="3.5357" font-size="1.3333" lengthAdjust="spacingAndGlyphs"
text-anchor="middle" opacity="0">FID3</text>
<g class="stroked-text"><desc>FID3</desc>
<path d="M25.8368 11.1793
L25.5035 11.1793
" />
<path d="M25.5035 11.7031
L25.5035 10.7031
" />
<path d="M25.5035 10.7031
L25.9797 10.7031
" />
<path d="M26.3606 11.7031
L26.3606 10.7031
" />
<path d="M26.8368 11.7031
L26.8368 10.7031
" />
<path d="M26.8368 10.7031
L27.0749 10.7031
" />
<path d="M27.0749 10.7031
L27.2178 10.7507
" />
<path d="M27.2178 10.7507
L27.3130 10.8459
" />
<path d="M27.3130 10.8459
L27.3606 10.9412
" />
<path d="M27.3606 10.9412
L27.4082 11.1316
" />
<path d="M27.4082 11.1316
L27.4082 11.2745
" />
<path d="M27.4082 11.2745
L27.3606 11.4650
" />
<path d="M27.3606 11.4650
L27.3130 11.5602
" />
<path d="M27.3130 11.5602
L27.2178 11.6555
" />
<path d="M27.2178 11.6555
L27.0749 11.7031
" />
<path d="M27.0749 11.7031
L26.8368 11.7031
" />
<path d="M27.7416 10.7031
L28.3606 10.7031
" />
<path d="M28.3606 10.7031
L28.0273 11.0840
" />
<path d="M28.0273 11.0840
L28.1702 11.0840
" />
<path d="M28.1702 11.0840
L28.2654 11.1316
" />
<path d="M28.2654 11.1316
L28.3130 11.1793
" />
<path d="M28.3130 11.1793
L28.3606 11.2745
" />
<path d="M28.3606 11.2745
L28.3606 11.5126
" />
<path d="M28.3606 11.5126
L28.3130 11.6078
" />
<path d="M28.3130 11.6078
L28.2654 11.6555
" />
<path d="M28.2654 11.6555
L28.1702 11.7031
" />
<path d="M28.1702 11.7031
L27.8844 11.7031
" />
<path d="M27.8844 11.7031
L27.7892 11.6555
" />
<path d="M27.7892 11.6555
L27.7416 11.6078
" />
</g><text x="5.9082" y="11.7482"
textLength="3.5357" font-size="1.3333" lengthAdjust="spacingAndGlyphs"
text-anchor="middle" opacity="0">FID2</text>
<g class="stroked-text"><desc>FID2</desc>
<path d="M4.8368 11.1793
L4.5035 11.1793
" />
<path d="M4.5035 11.7031
L4.5035 10.7031
" />
<path d="M4.5035 10.7031
L4.9797 10.7031
" />
<path d="M5.3606 11.7031
L5.3606 10.7031
" />
<path d="M5.8368 11.7031
L5.8368 10.7031
" />
<path d="M5.8368 10.7031
L6.0749 10.7031
" />
<path d="M6.0749 10.7031
L6.2178 10.7507
" />
<path d="M6.2178 10.7507
L6.3130 10.8459
" />
<path d="M6.3130 10.8459
L6.3606 10.9412
" />
<path d="M6.3606 10.9412
L6.4082 11.1316
" />
<path d="M6.4082 11.1316
L6.4082 11.2745
" />
<path d="M6.4082 11.2745
L6.3606 11.4650
" />
<path d="M6.3606 11.4650
L6.3130 11.5602
" />
<path d="M6.3130 11.5602
L6.2178 11.6555
" />
<path d="M6.2178 11.6555
L6.0749 11.7031
" />
<path d="M6.0749 11.7031
L5.8368 11.7031
" />
<path d="M6.7892 10.7983
L6.8368 10.7507
" />
<path d="M6.8368 10.7507
L6.9321 10.7031
" />
<path d="M6.9321 10.7031
L7.1702 10.7031
" />
<path d="M7.1702 10.7031
L7.2654 10.7507
" />
<path d="M7.2654 10.7507
L7.3130 10.7983
" />
<path d="M7.3130 10.7983
L7.3606 10.8935
" />
<path d="M7.3606 10.8935
L7.3606 10.9888
" />
<path d="M7.3606 10.9888
L7.3130 11.1316
" />
<path d="M7.3130 11.1316
L6.7416 11.7031
" />
<path d="M6.7416 11.7031
L7.3606 11.7031
" />
</g><text x="29.9082" y="27.2482"
textLength="3.5357" font-size="1.3333" lengthAdjust="spacingAndGlyphs"
text-anchor="middle" opacity="0">FID1</text>
<g class="stroked-text"><desc>FID1</desc>
<path d="M28.8368 26.6793
L28.5035 26.6793
" />
<path d="M28.5035 27.2031
L28.5035 26.2031
" />
<path d="M28.5035 26.2031
L28.9797 26.2031
" />
<path d="M29.3606 27.2031
L29.3606 26.2031
" />
<path d="M29.8368 27.2031
L29.8368 26.2031
" />
<path d="M29.8368 26.2031
L30.0749 26.2031
" />
<path d="M30.0749 26.2031
L30.2178 26.2507
" />
<path d="M30.2178 26.2507
L30.3130 26.3459
" />
<path d="M30.3130 26.3459
L30.3606 26.4412
" />
<path d="M30.3606 26.4412
L30.4082 26.6316
" />
<path d="M30.4082 26.6316
L30.4082 26.7745
" />
<path d="M30.4082 26.7745
L30.3606 26.9650
" />
<path d="M30.3606 26.9650
L30.3130 27.0602
" />
<path d="M30.3130 27.0602
L30.2178 27.1554
" />
<path d="M30.2178 27.1554
L30.0749 27.2031
" />
<path d="M30.0749 27.2031
L29.8368 27.2031
" />
<path d="M31.3606 27.2031
L30.7892 27.2031
" />
<path d="M31.0749 27.2031
L31.0749 26.2031
" />
<path d="M31.0749 26.2031
L30.9797 26.3459
" />
<path d="M30.9797 26.3459
L30.8844 26.4412
" />
<path d="M30.8844 26.4412
L30.7892 26.4888
" />
</g><text x="28.9832" y="18.7482"
textLength="2.2024" font-size="1.3333" lengthAdjust="spacingAndGlyphs"
text-anchor="middle" opacity="0">D5</text>
<g class="stroked-text"><desc>D5</desc>
<path d="M28.2452 18.7031
L28.2452 17.7031
" />
<path d="M28.2452 17.7031
L28.4832 17.7031
" />
<path d="M28.4832 17.7031
L28.6261 17.7507
" />
<path d="M28.6261 17.7507
L28.7213 17.8459
" />
<path d="M28.7213 17.8459
L28.7690 17.9412
" />
<path d="M28.7690 17.9412
L28.8166 18.1316
" />
<path d="M28.8166 18.1316
L28.8166 18.2745
" />
<path d="M28.8166 18.2745
L28.7690 18.4650
" />
<path d="M28.7690 18.4650
L28.7213 18.5602
" />
<path d="M28.7213 18.5602
L28.6261 18.6554
" />
<path d="M28.6261 18.6554
L28.4832 18.7031
" />
<path d="M28.4832 18.7031
L28.2452 18.7031
" />
<path d="M29.7213 17.7031
L29.2452 17.7031
" />
<path d="M29.2452 17.7031
L29.1975 18.1793
" />
<path d="M29.1975 18.1793
L29.2452 18.1316
" />
<path d="M29.2452 18.1316
L29.3404 18.0840
" />
<path d="M29.3404 18.0840
L29.5785 18.0840
" />
<path d="M29.5785 18.0840
L29.6737 18.1316
" />
<path d="M29.6737 18.1316
L29.7213 18.1793
" />
<path d="M29.7213 18.1793
L29.7690 18.2745
" />
<path d="M29.7690 18.2745
L29.7690 18.5126
" />
<path d="M29.7690 18.5126
L29.7213 18.6078
" />
<path d="M29.7213 18.6078
L29.6737 18.6554
" />
<path d="M29.6737 18.6554
L29.5785 18.7031
" />
<path d="M29.5785 18.7031
L29.3404 18.7031
" />
<path d="M29.3404 18.7031
L29.2452 18.6554
" />
<path d="M29.2452 18.6554
L29.1975 18.6078
" />
</g><text x="24.1582" y="29.8107"
textLength="2.2024" font-size="1.3333" lengthAdjust="spacingAndGlyphs"
text-anchor="middle" opacity="0">R2</text>
<g class="stroked-text"><desc>R2</desc>
<path d="M23.9916 29.7656
L23.6582 29.2894
" />
<path d="M23.4202 29.7656
L23.4202 28.7656
" />
<path d="M23.4202 28.7656
L23.8011 28.7656
" />
<path d="M23.8011 28.7656
L23.8963 28.8132
" />
<path d="M23.8963 28.8132
L23.9440 28.8608
" />
<path d="M23.9440 28.8608
L23.9916 28.9560
" />
<path d="M23.9916 28.9560
L23.9916 29.0989
" />
<path d="M23.9916 29.0989
L23.9440 29.1941
" />
<path d="M23.9440 29.1941
L23.8963 29.2418
" />
<path d="M23.8963 29.2418
L23.8011 29.2894
" />
<path d="M23.8011 29.2894
L23.4202 29.2894
" />
<path d="M24.3725 28.8608
L24.4202 28.8132
" />
<path d="M24.4202 28.8132
L24.5154 28.7656
" />
<path d="M24.5154 28.7656
L24.7535 28.7656
" />
<path d="M24.7535 28.7656
L24.8487 28.8132
" />
<path d="M24.8487 28.8132
L24.8963 28.8608
" />
<path d="M24.8963 28.8608
L24.9440 28.9560
" />
<path d="M24.9440 28.9560
L24.9440 29.0513
" />
<path d="M24.9440 29.0513
L24.8963 29.1941
" />
<path d="M24.8963 29.1941
L24.3249 29.7656
" />
<path d="M24.3249 29.7656
L24.9440 29.7656
" />
</g><text x="3.8582" y="18.7482"
textLength="2.2024" font-size="1.3333" lengthAdjust="spacingAndGlyphs"
text-anchor="middle" opacity="0">D2</text>
<g class="stroked-text"><desc>D2</desc>
<path d="M3.1202 18.7031
L3.1202 17.7031
" />
<path d="M3.1202 17.7031
L3.3582 17.7031
" />
<path d="M3.3582 17.7031
L3.5011 17.7507
" />
<path d="M3.5011 17.7507
L3.5963 17.8459
" />
<path d="M3.5963 17.8459
L3.6440 17.9412
" />
<path d="M3.6440 17.9412
L3.6916 18.1316
" />
<path d="M3.6916 18.1316
L3.6916 18.2745
" />
<path d="M3.6916 18.2745
L3.6440 18.4650
" />
<path d="M3.6440 18.4650
L3.5963 18.5602
" />
<path d="M3.5963 18.5602
L3.5011 18.6554
" />
<path d="M3.5011 18.6554
L3.3582 18.7031
" />
<path d="M3.3582 18.7031
L3.1202 18.7031
" />
<path d="M4.0725 17.7983
L4.1202 17.7507
" />
<path d="M4.1202 17.7507
L4.2154 17.7031
" />
<path d="M4.2154 17.7031
L4.4535 17.7031
" />
<path d="M4.4535 17.7031
L4.5487 17.7507
" />
<path d="M4.5487 17.7507
L4.5963 17.7983
" />
<path d="M4.5963 17.7983
L4.6440 17.8935
" />
<path d="M4.6440 17.8935
L4.6440 17.9888
" />
<path d="M4.6440 17.9888
L4.5963 18.1316
" />
<path d="M4.5963 18.1316
L4.0249 18.7031
" />
<path d="M4.0249 18.7031
L4.6440 18.7031
" />
</g><text x="4.9082" y="13.7482"
textLength="2.2024" font-size="1.3333" lengthAdjust="spacingAndGlyphs"
text-anchor="middle" opacity="0">D1</text>
<g class="stroked-text"><desc>D1</desc>
<path d="M4.1702 13.7031
L4.1702 12.7031
" />
<path d="M4.1702 12.7031
L4.4082 12.7031
" />
<path d="M4.4082 12.7031
L4.5511 12.7507
" />
<path d="M4.5511 12.7507
L4.6463 12.8459
" />
<path d="M4.6463 12.8459
L4.6940 12.9412
" />
<path d="M4.6940 12.9412
L4.7416 13.1316
" />
<path d="M4.7416 13.1316
L4.7416 13.2745
" />
<path d="M4.7416 13.2745
L4.6940 13.4650
" />
<path d="M4.6940 13.4650
L4.6463 13.5602
" />
<path d="M4.6463 13.5602
L4.5511 13.6555
" />
<path d="M4.5511 13.6555
L4.4082 13.7031
" />
<path d="M4.4082 13.7031
L4.1702 13.7031
" />
<path d="M5.6940 13.7031
L5.1225 13.7031
" />
<path d="M5.4082 13.7031
L5.4082 12.7031
" />
<path d="M5.4082 12.7031
L5.3130 12.8459
" />
<path d="M5.3130 12.8459
L5.2178 12.9412
" />
<path d="M5.2178 12.9412
L5.1225 12.9888
" />
</g><text x="4.9082" y="23.7482"
textLength="2.2024" font-size="1.3333" lengthAdjust="spacingAndGlyphs"
text-anchor="middle" opacity="0">D3</text>
<g class="stroked-text"><desc>D3</desc>
<path d="M4.1702 23.7031
L4.1702 22.7031
" />
<path d="M4.1702 22.7031
L4.4082 22.7031
" />
<path d="M4.4082 22.7031
L4.5511 22.7507
" />
<path d="M4.5511 22.7507
L4.6463 22.8459
" />
<path d="M4.6463 22.8459
L4.6940 22.9412
" />
<path d="M4.6940 22.9412
L4.7416 23.1316
" />
<path d="M4.7416 23.1316
L4.7416 23.2745
" />
<path d="M4.7416 23.2745
L4.6940 23.4650
" />
<path d="M4.6940 23.4650
L4.6463 23.5602
" />
<path d="M4.6463 23.5602
L4.5511 23.6554
" />
<path d="M4.5511 23.6554
L4.4082 23.7031
" />
<path d="M4.4082 23.7031
L4.1702 23.7031
" />
<path d="M5.0749 22.7031
L5.6940 22.7031
" />
<path d="M5.6940 22.7031
L5.3606 23.0840
" />
<path d="M5.3606 23.0840
L5.5035 23.0840
" />
<path d="M5.5035 23.0840
L5.5987 23.1316
" />
<path d="M5.5987 23.1316
L5.6463 23.1793
" />
<path d="M5.6463 23.1793
L5.6940 23.2745
" />
<path d="M5.6940 23.2745
L5.6940 23.5126
" />
<path d="M5.6940 23.5126
L5.6463 23.6078
" />
<path d="M5.6463 23.6078
L5.5987 23.6554
" />
<path d="M5.5987 23.6554
L5.5035 23.7031
" />
<path d="M5.5035 23.7031
L5.2178 23.7031
" />
<path d="M5.2178 23.7031
L5.1225 23.6554
" />
<path d="M5.1225 23.6554
L5.0749 23.6078
" />
</g><text x="27.9832" y="14.7482"
textLength="2.2024" font-size="1.3333" lengthAdjust="spacingAndGlyphs"
text-anchor="middle" opacity="0">D4</text>
<g class="stroked-text"><desc>D4</desc>
<path d="M27.2452 14.7031
L27.2452 13.7031
" />
<path d="M27.2452 13.7031
L27.4832 13.7031
" />
<path d="M27.4832 13.7031
L27.6261 13.7507
" />
<path d="M27.6261 13.7507
L27.7213 13.8459
" />
<path d="M27.7213 13.8459
L27.7690 13.9412
" />
<path d="M27.7690 13.9412
L27.8166 14.1316
" />
<path d="M27.8166 14.1316
L27.8166 14.2745
" />
<path d="M27.8166 14.2745
L27.7690 14.4650
" />
<path d="M27.7690 14.4650
L27.7213 14.5602
" />
<path d="M27.7213 14.5602
L27.6261 14.6555
" />
<path d="M27.6261 14.6555
L27.4832 14.7031
" />
<path d="M27.4832 14.7031
L27.2452 14.7031
" />
<path d="M28.6737 14.0364
L28.6737 14.7031
" />
<path d="M28.4356 13.6555
L28.1975 14.3697
" />
<path d="M28.1975 14.3697
L28.8166 14.3697
" />
</g><g transform="rotate(-90.000000 0.8482 28.7482)">
<text x="0.8482" y="29.2482"
textLength="1.9643" font-size="1.3333" lengthAdjust="spacingAndGlyphs"
text-anchor="middle" opacity="0">J1</text>
</g>
<g class="stroked-text"><desc>J1</desc>
<path d="M0.3031 29.0816
L1.0174 29.0816
" />
<path d="M1.0174 29.0816
L1.1602 29.1292
" />
<path d="M1.1602 29.1292
L1.2554 29.2244
" />
<path d="M1.2554 29.2244
L1.3031 29.3673
" />
<path d="M1.3031 29.3673
L1.3031 29.4625
" />
<path d="M1.3031 28.0816
L1.3031 28.6530
" />
<path d="M1.3031 28.3673
L0.3031 28.3673
" />
<path d="M0.3031 28.3673
L0.4459 28.4625
" />
<path d="M0.4459 28.4625
L0.5412 28.5578
" />
<path d="M0.5412 28.5578
L0.5888 28.6530
" />
</g><text x="27.9832" y="23.7482"
textLength="2.2024" font-size="1.3333" lengthAdjust="spacingAndGlyphs"
text-anchor="middle" opacity="0">D6</text>
<g class="stroked-text"><desc>D6</desc>
<path d="M27.2452 23.7031
L27.2452 22.7031
" />
<path d="M27.2452 22.7031
L27.4832 22.7031
" />
<path d="M27.4832 22.7031
L27.6261 22.7507
" />
<path d="M27.6261 22.7507
L27.7213 22.8459
" />
<path d="M27.7213 22.8459
L27.7690 22.9412
" />
<path d="M27.7690 22.9412
L27.8166 23.1316
" />
<path d="M27.8166 23.1316
L27.8166 23.2745
" />
<path d="M27.8166 23.2745
L27.7690 23.4650
" />
<path d="M27.7690 23.4650
L27.7213 23.5602
" />
<path d="M27.7213 23.5602
L27.6261 23.6554
" />
<path d="M27.6261 23.6554
L27.4832 23.7031
" />
<path d="M27.4832 23.7031
L27.2452 23.7031
" />
<path d="M28.6737 22.7031
L28.4832 22.7031
" />
<path d="M28.4832 22.7031
L28.3880 22.7507
" />
<path d="M28.3880 22.7507
L28.3404 22.7983
" />
<path d="M28.3404 22.7983
L28.2452 22.9412
" />
<path d="M28.2452 22.9412
L28.1975 23.1316
" />
<path d="M28.1975 23.1316
L28.1975 23.5126
" />
<path d="M28.1975 23.5126
L28.2452 23.6078
" />
<path d="M28.2452 23.6078
L28.2928 23.6554
" />
<path d="M28.2928 23.6554
L28.3880 23.7031
" />
<path d="M28.3880 23.7031
L28.5785 23.7031
" />
<path d="M28.5785 23.7031
L28.6737 23.6554
" />
<path d="M28.6737 23.6554
L28.7213 23.6078
" />
<path d="M28.7213 23.6078
L28.7690 23.5126
" />
<path d="M28.7690 23.5126
L28.7690 23.2745
" />
<path d="M28.7690 23.2745
L28.7213 23.1793
" />
<path d="M28.7213 23.1793
L28.6737 23.1316
" />
<path d="M28.6737 23.1316
L28.5785 23.0840
" />
<path d="M28.5785 23.0840
L28.3880 23.0840
" />
<path d="M28.3880 23.0840
L28.2928 23.1316
" />
<path d="M28.2928 23.1316
L28.2452 23.1793
" />
<path d="M28.2452 23.1793
L28.1975 23.2745
" />
</g><text x="8.9957" y="26.5983"
textLength="2.2024" font-size="1.3333" lengthAdjust="spacingAndGlyphs"
text-anchor="middle" opacity="0">R1</text>
<g class="stroked-text"><desc>R1</desc>
<path d="M8.8291 26.5531
L8.4957 26.0769
" />
<path d="M8.2577 26.5531
L8.2577 25.5531
" />
<path d="M8.2577 25.5531
L8.6386 25.5531
" />
<path d="M8.6386 25.5531
L8.7338 25.6007
" />
<path d="M8.7338 25.6007
L8.7815 25.6483
" />
<path d="M8.7815 25.6483
L8.8291 25.7435
" />
<path d="M8.8291 25.7435
L8.8291 25.8864
" />
<path d="M8.8291 25.8864
L8.7815 25.9816
" />
<path d="M8.7815 25.9816
L8.7338 26.0293
" />
<path d="M8.7338 26.0293
L8.6386 26.0769
" />
<path d="M8.6386 26.0769
L8.2577 26.0769
" />
<path d="M9.7815 26.5531
L9.2100 26.5531
" />
<path d="M9.4957 26.5531
L9.4957 25.5531
" />
<path d="M9.4957 25.5531
L9.4005 25.6959
" />
<path d="M9.4005 25.6959
L9.3053 25.7912
" />
<path d="M9.3053 25.7912
L9.2100 25.8388
" />
</g></g>
<g style="fill:none; 
stroke:#000000; stroke-width:0.1200; stroke-opacity:1; 
stroke-linecap:round; stroke-linejoin:round;">
<path d="M22.9582 16.9982
L22.9582 20.1982
" />
<path d="M26.8582 16.9982
L22.9582 16.9982
" />
<path d="M26.8582 20.1982
L22.9582 20.1982
" />
<path d="M24.3853 28.3957
L23.9312 28.3957
" />
<path d="M24.3853 26.9257
L23.9312 26.9257
" />
<path d="M10.4082 20.1982
L10.4082 16.9982
" />
<path d="M6.5082 20.1982
L10.4082 20.1982
" />
<path d="M6.5082 16.9982
L10.4082 16.9982
" />
<path d="M6.4582 12.6482
L6.4582 15.8483
" />
<path d="M10.3582 12.6482
L6.4582 12.6482
" />
<path d="M10.3582 15.8483
L6.4582 15.8483
" />
<path d="M6.4582 21.3483
L6.4582 24.5482
" />
<path d="M10.3582 21.3483
L6.4582 21.3483
" />
<path d="M10.3582 24.5482
L6.4582 24.5482
" />
<path d="M26.9582 15.8483
L26.9582 12.6482
" />
<path d="M23.0582 15.8483
L26.9582 15.8483
" />
<path d="M23.0582 12.6482
L26.9582 12.6482
" />
<path d="M1.7232 29.4432
L1.7232 28.7482
" />
<path d="M2.4082 29.4432
L1.7232 29.4432
" />
<path d="M3.0932 29.4432
L3.9682 29.4432
" />
<path d="M3.0932 29.4432
L3.0932 29.3565
" />
<path d="M3.9682 29.4432
L3.9682 29.1427
" />
<path d="M3.9682 28.3538
L3.9682 28.0532
" />
<path d="M3.0932 28.1400
L3.0932 28.0532
" />
<path d="M3.0932 28.0532
L3.9682 28.0532
" />
<path d="M26.9582 24.5482
L26.9582 21.3483
" />
<path d="M23.0582 24.5482
L26.9582 24.5482
" />
<path d="M23.0582 21.3483
L26.9582 21.3483
" />
<path d="M8.7687 27.0132
L9.2228 27.0132
" />
<path d="M8.7687 28.4832
L9.2228 28.4832
" />
</g> 
</svg>
