<?xml version="1.0" standalone="no"?>
 <!DOCTYPE svg PUBLIC "-//W3C//DTD SVG 1.1//EN" 
 "http://www.w3.org/Graphics/SVG/1.1/DTD/svg11.dtd"> 
<svg
  xmlns:svg="http://www.w3.org/2000/svg"
  xmlns="http://www.w3.org/2000/svg"
  xmlns:xlink="http://www.w3.org/1999/xlink"
  version="1.1"
  width="45.6692mm" height="36.3728mm" viewBox="0.0000 0.0000 45.6692 36.3728">
<title>SVG Image created as Testdruck-R0805-F_Cu.svg date 2024/07/20 19:52:07 </title>
  <desc>Image generated by PCBNEW </desc>
<g style="fill:#000000; fill-opacity:1.0000;stroke:#000000; stroke-opacity:1.0000;
stroke-linecap:round; stroke-linejoin:round;"
 transform="translate(0 0) scale(1 1)">
</g>
<g style="fill:#000000; fill-opacity:1.0000; stroke:none;">
<circle cx="29.9082" cy="11.2482" r="0.5000" /> 
</g>
<g style="fill:#000000; fill-opacity:1.0000; stroke:none;">
<circle cx="3.4082" cy="11.7482" r="0.5000" /> 
</g>
<g style="fill:#000000; fill-opacity:1.0000; stroke:none;">
<circle cx="29.9082" cy="28.7482" r="0.5000" /> 
<path style="fill:#000000; fill-opacity:1.0000; stroke:none;fill-rule:evenodd;"
d="M 23.1582,19.6982
23.1582,17.4982
25.6582,17.4982
25.6582,19.6982
Z" /> 
<path style="fill:#000000; fill-opacity:1.0000; stroke:none;fill-rule:evenodd;"
d="M 26.2082,19.6982
26.2082,17.4982
27.7583,17.4982
27.7583,19.6982
Z" /> 
<path style="fill:#000000; fill-opacity:1.0000; stroke:none;fill-rule:evenodd;"
d="M 23.7583,28.1107
23.7392,28.2064
23.6850,28.2875
23.6039,28.3417
23.5083,28.3607
22.9832,28.3607
22.8876,28.3417
22.8065,28.2875
22.7523,28.2064
22.7332,28.1107
22.7332,27.2107
22.7523,27.1151
22.8065,27.0340
22.8876,26.9798
22.9832,26.9607
23.5083,26.9607
23.6039,26.9798
23.6850,27.0340
23.7392,27.1151
23.7583,27.2107
Z" /> 
<path style="fill:#000000; fill-opacity:1.0000; stroke:none;fill-rule:evenodd;"
d="M 25.5832,28.1107
25.5642,28.2064
25.5100,28.2875
25.4289,28.3417
25.3332,28.3607
24.8082,28.3607
24.7126,28.3417
24.6315,28.2875
24.5773,28.2064
24.5582,28.1107
24.5582,27.2107
24.5773,27.1151
24.6315,27.0340
24.7126,26.9798
24.8082,26.9607
25.3332,26.9607
25.4289,26.9798
25.5100,27.0340
25.5642,27.1151
25.5832,27.2107
Z" /> 
<path style="fill:#000000; fill-opacity:1.0000; stroke:none;fill-rule:evenodd;"
d="M 10.2082,17.4982
10.2082,19.6982
7.7082,19.6982
7.7082,17.4982
Z" /> 
<path style="fill:#000000; fill-opacity:1.0000; stroke:none;fill-rule:evenodd;"
d="M 7.1582,17.4982
7.1582,19.6982
5.6082,19.6982
5.6082,17.4982
Z" /> 
<path style="fill:#000000; fill-opacity:1.0000; stroke:none;fill-rule:evenodd;"
d="M 6.6582,15.3483
6.6582,13.1482
9.1582,13.1482
9.1582,15.3483
Z" /> 
<path style="fill:#000000; fill-opacity:1.0000; stroke:none;fill-rule:evenodd;"
d="M 9.7082,15.3483
9.7082,13.1482
11.2583,13.1482
11.2583,15.3483
Z" /> 
<path style="fill:#000000; fill-opacity:1.0000; stroke:none;fill-rule:evenodd;"
d="M 6.6582,24.0482
6.6582,21.8483
9.1582,21.8483
9.1582,24.0482
Z" /> 
<path style="fill:#000000; fill-opacity:1.0000; stroke:none;fill-rule:evenodd;"
d="M 9.7082,24.0482
9.7082,21.8483
11.2583,21.8483
11.2583,24.0482
Z" /> 
<path style="fill:#000000; fill-opacity:1.0000; stroke:none;fill-rule:evenodd;"
d="M 26.7583,13.1482
26.7583,15.3483
24.2583,15.3483
24.2583,13.1482
Z" /> 
<path style="fill:#000000; fill-opacity:1.0000; stroke:none;fill-rule:evenodd;"
d="M 23.7082,13.1482
23.7082,15.3483
22.1582,15.3483
22.1582,13.1482
Z" /> 
<path style="fill:#000000; fill-opacity:1.0000; stroke:none;fill-rule:evenodd;"
d="M 2.8333,29.1732
1.9832,29.1732
1.9832,28.3232
2.8333,28.3232
Z" /> 
</g>
<g style="fill:#000000; fill-opacity:1.0000; stroke:none;">
<circle cx="3.4082" cy="28.7482" r="0.4250" /> 
<path style="fill:#000000; fill-opacity:1.0000; stroke:none;fill-rule:evenodd;"
d="M 26.7583,21.8483
26.7583,24.0482
24.2583,24.0482
24.2583,21.8483
Z" /> 
<path style="fill:#000000; fill-opacity:1.0000; stroke:none;fill-rule:evenodd;"
d="M 23.7082,21.8483
23.7082,24.0482
22.1582,24.0482
22.1582,21.8483
Z" /> 
<path style="fill:#000000; fill-opacity:1.0000; stroke:none;fill-rule:evenodd;"
d="M 9.3957,27.2982
9.4148,27.2026
9.4690,27.1215
9.5501,27.0673
9.6457,27.0482
10.1707,27.0482
10.2664,27.0673
10.3475,27.1215
10.4017,27.2026
10.4207,27.2982
10.4207,28.1982
10.4017,28.2939
10.3475,28.3750
10.2664,28.4292
10.1707,28.4482
9.6457,28.4482
9.5501,28.4292
9.4690,28.3750
9.4148,28.2939
9.3957,28.1982
Z" /> 
<path style="fill:#000000; fill-opacity:1.0000; stroke:none;fill-rule:evenodd;"
d="M 7.5707,27.2982
7.5898,27.2026
7.6440,27.1215
7.7251,27.0673
7.8207,27.0482
8.3457,27.0482
8.4414,27.0673
8.5225,27.1215
8.5767,27.2026
8.5957,27.2982
8.5957,28.1982
8.5767,28.2939
8.5225,28.3750
8.4414,28.4292
8.3457,28.4482
7.8207,28.4482
7.7251,28.4292
7.6440,28.3750
7.5898,28.2939
7.5707,28.1982
Z" /> 
</g>
<g style="fill:none; 
stroke:#000000; stroke-width:0.5000; stroke-opacity:1; 
stroke-linecap:round; stroke-linejoin:round;">
<path d="M10.4082 12.2482
L10.4832 12.3232
" />
<path d="M10.4832 12.3232
L10.4832 14.2482
" />
<path d="M9.4082 10.2482
L10.4082 11.2482
" />
<path d="M1.9083 10.2482
L9.4082 10.2482
" />
<path d="M1.9083 28.2482
L1.9083 10.2482
" />
<path d="M10.4082 11.2482
L10.4082 12.2482
" />
<path d="M2.4082 28.7482
L1.9083 28.2482
" />
<path d="M8.4833 29.1732
L3.8332 29.1732
" />
<path d="M3.8332 29.1732
L3.4082 28.7482
" />
<path d="M9.9082 27.7482
L8.4833 29.1732
" />
<path d="M11.4082 29.2482
L9.9082 27.7482
" />
<path d="M21.9082 29.2482
L11.4082 29.2482
" />
<path d="M23.2457 27.6608
L23.2457 27.9108
" />
<path d="M23.2457 27.9108
L21.9082 29.2482
" />
<path style="fill:#000000; fill-opacity:1.0000; stroke:none;fill-rule:evenodd;"
d="M 8.3513,11.0184
8.3970,11.0712
8.4082,11.1227
8.4082,16.8737
8.3886,16.9408
8.3358,16.9865
8.2843,16.9977
7.6604,16.9977
7.6604,16.9978
7.6008,17.0042
7.4659,17.0545
7.4659,17.0545
7.3507,17.1407
7.3507,17.1407
7.2645,17.2559
7.2645,17.2559
7.2142,17.3908
7.2078,17.4504
7.2077,17.4504
7.2078,19.6187
7.1881,19.6858
7.1353,19.7315
7.0838,19.7427
2.7828,19.7427
2.7157,19.7231
2.6700,19.6703
2.6587,19.6187
2.6587,12.6886
2.6784,12.6215
2.7312,12.5758
2.8004,12.5658
2.8437,12.5824
2.8443,12.5813
3.0235,12.6771
3.0235,12.6771
3.0235,12.6771
3.2121,12.7343
3.4082,12.7536
3.6044,12.7343
3.7930,12.6771
3.9668,12.5842
4.1191,12.4591
4.2442,12.3068
4.3371,12.1330
4.3943,11.9444
4.4136,11.7482
4.3943,11.5521
4.3371,11.3635
4.3371,11.3635
4.3371,11.3635
4.2413,11.1843
4.2429,11.1835
4.2246,11.1250
4.2430,11.0576
4.2950,11.0109
4.3486,10.9987
8.2843,10.9987
Z" /> 
<path style="fill:#000000; fill-opacity:1.0000; stroke:none;fill-rule:evenodd;"
d="M 29.0353,10.5179
29.0811,10.5707
29.0910,10.6399
29.0742,10.6838
29.0752,10.6843
28.9794,10.8635
28.9222,11.0521
28.9029,11.2482
28.9222,11.4444
28.9794,11.6330
29.0723,11.8068
29.0723,11.8068
29.1974,11.9591
29.3497,12.0842
29.3497,12.0842
29.5235,12.1771
29.5235,12.1771
29.5235,12.1771
29.7121,12.2343
29.9082,12.2536
30.1044,12.2343
30.2930,12.1771
30.4668,12.0842
30.6191,11.9591
30.7442,11.8068
30.8371,11.6330
30.8943,11.4444
30.9136,11.2482
30.8943,11.0521
30.8371,10.8635
30.8371,10.8635
30.8371,10.8635
30.7413,10.6843
30.7427,10.6836
30.7242,10.6245
30.7427,10.5571
30.7947,10.5104
30.8482,10.4982
31.2843,10.4982
31.3513,10.5179
31.3970,10.5707
31.4082,10.6222
31.4082,19.3687
31.3886,19.4358
31.3358,19.4815
31.2843,19.4927
28.2209,19.4927
28.1312,19.5008
28.1312,19.5008
28.0879,19.5086
28.0879,19.5086
28.0010,19.5324
28.0010,19.5324
27.8747,19.6014
27.8747,19.6014
27.8194,19.6428
27.8188,19.6432
27.8187,19.6433
27.8112,19.6508
27.7979,19.6623
27.7896,19.6685
27.7242,19.6929
27.7153,19.6932
26.2827,19.6932
26.2157,19.6736
26.1700,19.6208
26.1587,19.5692
26.1587,17.4504
26.1587,17.4504
26.1523,17.3908
26.1020,17.2559
26.1020,17.2559
26.0158,17.1407
26.0158,17.1407
25.9006,17.0545
25.9006,17.0545
25.7657,17.0042
25.7657,17.0042
25.7061,16.9978
25.7061,16.9977
25.7061,16.9977
25.7061,16.9977
25.2822,16.9977
25.2152,16.9781
25.1695,16.9253
25.1582,16.8737
25.1582,10.6222
25.1779,10.5552
25.2307,10.5095
25.2822,10.4982
28.9683,10.4982
Z" /> 
<path style="fill:#000000; fill-opacity:1.0000; stroke:none;fill-rule:evenodd;"
d="M 8.3513,20.2679
8.3970,20.3207
8.4082,20.3722
8.4082,28.1355
8.3886,28.2026
8.3719,28.2232
8.2087,28.3864
8.1474,28.4199
8.1210,28.4227
4.3606,28.4227
4.2935,28.4031
4.2532,28.3607
4.1758,28.2267
4.1611,28.2013
4.0733,28.1037
4.0309,28.0567
4.0309,28.0567
4.0309,28.0567
4.0309,28.0567
3.9077,27.9672
3.8735,27.9423
3.7323,27.8795
3.6958,27.8632
3.6958,27.8632
3.5055,27.8227
3.3110,27.8227
3.1207,27.8632
3.1145,27.8652
3.1136,27.8625
3.0566,27.8698
3.0328,27.8635
2.9407,27.8292
2.9407,27.8292
2.8811,27.8228
2.8811,27.8227
2.8811,27.8227
2.8811,27.8227
2.7828,27.8227
2.7157,27.8031
2.6700,27.7503
2.6587,27.6988
2.6587,20.3722
2.6784,20.3052
2.7312,20.2595
2.7828,20.2482
8.2843,20.2482
Z" /> 
<path style="fill:#000000; fill-opacity:1.0000; stroke:none;fill-rule:evenodd;"
d="M 23.8513,10.7679
23.8970,10.8207
23.9082,10.8722
23.9082,12.7394
23.8886,12.8064
23.8835,12.8137
23.8145,12.9059
23.8145,12.9059
23.7642,13.0408
23.7578,13.1004
23.7577,13.1004
23.7577,15.3961
23.7578,15.3961
23.7642,15.4557
23.8145,15.5906
23.8145,15.5906
23.8835,15.6828
23.9079,15.7483
23.9082,15.7571
23.9082,16.1242
23.8886,16.1913
23.8358,16.2370
23.7843,16.2482
21.9221,16.2482
21.8551,16.2286
21.8135,16.1840
21.7806,16.1242
21.5834,15.7655
21.3165,15.3638
21.3165,15.3638
21.0170,14.9859
21.0170,14.9859
20.6869,14.6343
20.6869,14.6343
20.5035,14.4693
20.3285,14.3117
19.9444,14.0201
19.5372,13.7617
19.5372,13.7617
19.1099,13.5383
19.1099,13.5383
18.6653,13.3514
18.6653,13.3514
18.2067,13.2024
18.2067,13.2024
17.7372,13.0923
17.7372,13.0923
17.7372,13.0923
17.2601,13.0218
17.2601,13.0218
17.2601,13.0218
16.7788,12.9916
16.7788,12.9916
16.2967,13.0017
15.8171,13.0521
15.6063,13.0923
15.3434,13.1424
14.8790,13.2721
14.8790,13.2721
14.4270,13.4402
13.9906,13.6455
13.5730,13.8866
13.1770,14.1619
13.1770,14.1619
13.1770,14.1619
12.8054,14.4693
12.8054,14.4693
12.4609,14.8067
12.4609,14.8067
12.1458,15.1717
11.8623,15.5618
11.8623,15.5619
11.6125,15.9743
11.6125,15.9743
11.5107,16.1794
11.4633,16.2307
11.3997,16.2482
10.0322,16.2482
9.9652,16.2286
9.9195,16.1758
9.9082,16.1242
9.9082,10.8722
9.9279,10.8052
9.9807,10.7595
10.0322,10.7482
23.7843,10.7482
Z" /> 
<path style="fill:#000000; fill-opacity:1.0000; stroke:none;fill-rule:evenodd;"
d="M 11.0773,17.0179
11.1230,17.0707
11.1330,17.1399
11.1290,17.1581
11.0812,17.3163
11.0812,17.3163
10.9809,17.7880
10.9809,17.7880
10.9205,18.2664
10.9003,18.7482
10.9003,18.7483
10.9205,19.2301
10.9809,19.7085
10.9809,19.7085
11.0812,20.1802
11.0812,20.1802
11.2206,20.6418
11.2206,20.6419
11.3981,21.0902
11.3981,21.0902
11.3981,21.0902
11.6125,21.5222
11.6125,21.5222
11.6125,21.5222
11.6125,21.5222
11.8623,21.9346
11.8623,21.9347
12.1458,22.3248
12.4609,22.6898
12.4609,22.6898
12.8054,23.0272
13.1770,23.3346
13.1770,23.3346
13.5730,23.6098
13.5730,23.6099
13.5730,23.6099
13.9906,23.8510
14.4270,24.0563
14.4270,24.0563
14.4270,24.0563
14.5281,24.0939
14.8789,24.2244
14.8790,24.2244
14.8790,24.2244
15.1160,24.2906
15.3434,24.3541
15.8171,24.4444
16.2967,24.4948
16.2967,24.4948
16.2972,24.4949
16.3618,24.5215
16.4018,24.5788
16.4082,24.6182
16.4082,28.3737
16.3886,28.4408
16.3358,28.4865
16.2843,28.4977
11.7705,28.4977
11.7034,28.4781
11.6828,28.4614
10.9576,27.7362
10.9241,27.6749
10.9212,27.6485
10.9212,27.2482
10.9212,27.2482
10.9107,27.1455
10.9107,27.1455
10.8556,26.9789
10.7635,26.8296
10.6394,26.7055
10.4901,26.6134
10.3235,26.5583
10.3235,26.5582
10.2208,26.5477
9.5957,26.5477
9.5957,26.5478
9.4930,26.5582
9.4930,26.5583
9.3264,26.6134
9.3264,26.6134
9.1771,26.7055
9.1199,26.7627
9.0586,26.7962
8.9889,26.7912
8.9330,26.7493
8.9086,26.6839
8.9082,26.6750
8.9082,24.6727
8.9279,24.6057
8.9807,24.5600
9.0322,24.5487
9.2061,24.5487
9.2657,24.5423
9.4006,24.4920
9.5158,24.4058
9.6020,24.2906
9.6523,24.1557
9.6587,24.0961
9.6587,21.8004
9.6523,21.7408
9.6020,21.6059
9.6020,21.6059
9.6020,21.6059
9.5158,21.4907
9.5158,21.4907
9.4006,21.4045
9.4006,21.4045
9.2657,21.3542
9.2657,21.3542
9.2061,21.3478
9.2061,21.3477
9.2061,21.3477
9.2061,21.3477
9.0322,21.3477
8.9652,21.3281
8.9195,21.2753
8.9082,21.2237
8.9082,17.1222
8.9279,17.0552
8.9807,17.0095
9.0322,16.9982
11.0102,16.9982
Z" /> 
<path style="fill:#000000; fill-opacity:1.0000; stroke:none;fill-rule:evenodd;"
d="M 23.8513,16.7679
23.8970,16.8207
23.9082,16.8722
23.9082,21.4394
23.8886,21.5064
23.8835,21.5137
23.8145,21.6059
23.8145,21.6059
23.7642,21.7408
23.7578,21.8004
23.7577,21.8004
23.7577,24.0961
23.7578,24.0961
23.7642,24.1557
23.8145,24.2906
23.8145,24.2906
23.8835,24.3828
23.9079,24.4483
23.9082,24.4571
23.9082,26.3809
23.8886,26.4480
23.8358,26.4937
23.7666,26.5037
23.7452,26.4987
23.7304,26.4937
23.6610,26.4708
23.6610,26.4707
23.5583,26.4602
22.9332,26.4602
22.9332,26.4603
22.8305,26.4707
22.8304,26.4708
22.6639,26.5259
22.6639,26.5259
22.5146,26.6180
22.3905,26.7421
22.2984,26.8914
22.2984,26.8914
22.2433,27.0580
22.2433,27.0580
22.2432,27.0580
22.2327,27.1607
22.2327,27.8110
22.2131,27.8781
22.1964,27.8987
21.6337,28.4614
21.5724,28.4949
21.5460,28.4977
17.0322,28.4977
16.9652,28.4781
16.9195,28.4253
16.9082,28.3737
16.9082,24.6132
16.9279,24.5462
16.9807,24.5005
17.0245,24.4895
17.2601,24.4747
17.7372,24.4042
18.2067,24.2941
18.6653,24.1451
19.1099,23.9582
19.5372,23.7348
19.9444,23.4764
20.3285,23.1848
20.6869,22.8622
21.0170,22.5106
21.3165,22.1327
21.5834,21.7310
21.8157,21.3084
22.0119,20.8679
22.1705,20.4125
22.2904,19.9454
22.3422,19.6390
22.3708,19.4699
22.3708,19.4699
22.3708,19.4699
22.4112,18.9894
22.4137,18.7482
22.4112,18.5071
22.3708,18.0266
22.3708,18.0266
22.3708,18.0266
22.3334,17.8057
22.2904,17.5511
22.1705,17.0840
22.1526,17.0329
22.1109,16.9130
22.1075,16.8432
22.1423,16.7827
22.2043,16.7505
22.2280,16.7482
23.7843,16.7482
Z" /> 
<path style="fill:#000000; fill-opacity:1.0000; stroke:none;fill-rule:evenodd;"
d="M 31.3513,20.0179
31.3970,20.0707
31.4082,20.1222
31.4082,28.6242
31.3886,28.6913
31.3358,28.7370
31.2843,28.7482
31.0260,28.7482
30.9589,28.7286
30.9132,28.6758
30.9026,28.6364
30.8943,28.5521
30.8943,28.5521
30.8371,28.3635
30.8371,28.3635
30.8371,28.3635
30.7442,28.1897
30.7442,28.1897
30.6191,28.0374
30.4668,27.9123
30.4668,27.9123
30.2930,27.8194
30.2930,27.8194
30.1044,27.7622
30.1044,27.7622
29.9082,27.7429
29.7121,27.7622
29.5235,27.8194
29.3497,27.9123
29.3497,27.9123
29.1974,28.0374
29.0723,28.1897
29.0723,28.1897
28.9794,28.3635
28.9222,28.5521
28.9139,28.6364
28.8878,28.7012
28.8307,28.7416
28.7905,28.7482
24.7822,28.7482
24.7152,28.7286
24.6695,28.6758
24.6582,28.6242
24.6582,20.3227
24.6779,20.2557
24.7307,20.2100
24.7822,20.1987
25.7061,20.1987
25.7657,20.1923
25.8899,20.1460
25.9596,20.1410
25.9766,20.1460
26.0529,20.1745
26.1008,20.1923
26.1008,20.1923
26.1077,20.1931
26.1604,20.1988
27.8061,20.1987
27.8657,20.1923
28.0006,20.1420
28.1158,20.0558
28.1217,20.0479
28.1776,20.0061
28.2209,19.9982
31.2843,19.9982
Z" /> 
</g>
<g style="fill:#FFFFFF; fill-opacity:1.0000; stroke:none;">
<circle cx="2.4082" cy="28.7482" r="0.2500" /> 
</g>
<g style="fill:#FFFFFF; fill-opacity:1.0000; stroke:none;">
<circle cx="3.4082" cy="28.7482" r="0.2500" /> 
</g> 
</svg>
